700 0 1 0           
30 Autodesk Translation Framework 21 ASM 228.6.0.65535 OSX 24 Tue Feb 14 12:02:04 2023 
1 9.999999999999999547e-07 1.000000000000000036e-10 
body $1 -1 $-1 $2 $-1 $3 #
rgb_color-st-attrib $-1 -1 $-1 $-1 $0 0.7490196078431372584 0.7490196078431372584 0.7490196078431372584 #
lump $-1 -1 $-1 $-1 $4 $0 #
transform $-1 -1 1 0 0 0 1 0 0 0 1 0 0 0 1 no_rotate no_reflect no_shear #
shell $-1 -1 $-1 $-1 $-1 $5 $-1 $2 #
face $6 -1 $-1 $7 $8 $4 $-1 $9 reversed single #
DXID-attrib $-1 -1 $10 $-1 $5 @10 ASM ENTITY @1 0 #
face $11 -1 $-1 $12 $13 $4 $-1 $14 reversed single #
loop $-1 -1 $-1 $15 $16 $5 #
cone-surface $-1 -1 $-1 -1185.749765771369994 3.834758505292833933e-16 1160 1 0 0 0 3.300000000000000266 0 1 I I -0 1 3.300000000000000266 reversed I I I I #
NMx_Hole_Brep_tag-NMx_Brep_Name_tag-NMx_Brep_tag-NamingMatching-attrib $-1 -1 $-1 $6 $5 43 1 131 -1 2 7 #
DXID-attrib $-1 -1 $17 $-1 $7 @10 ASM ENTITY @1 1 #
face $18 -1 $-1 $19 $20 $4 $-1 $21 reversed single #
loop $-1 -1 $-1 $22 $23 $7 #
cone-surface $-1 -1 $-1 0 0 30.99142002139547358 -0 -0 -1 -1.650000000000000133 0 0 1 I I 0.8571673007021122226 0.5150380749100540445 1.650000000000000133 reversed I I I I #
loop $-1 -1 $-1 $-1 $24 $5 #
coedge $-1 -1 $-1 $25 $25 $26 $27 reversed $8 $-1 #
NMx_Hole_Brep_tag-NMx_Brep_Name_tag-NMx_Brep_tag-NamingMatching-attrib $-1 -1 $-1 $11 $7 43 1 82 -1 2 9 #
DXID-attrib $-1 -1 $28 $-1 $12 @10 ASM ENTITY @1 2 #
face $29 -1 $-1 $30 $31 $4 $-1 $32 forward single #
loop $-1 -1 $-1 $33 $34 $12 #
cone-surface $-1 -1 $-1 0 0 15 -0 -0 -1 -3.300000000000000266 0 0 1 I I -0 1 3.300000000000000266 reversed I I I I #
loop $-1 -1 $-1 $-1 $35 $7 #
coedge $-1 -1 $-1 $23 $23 $36 $37 forward $13 $-1 #
coedge $-1 -1 $-1 $24 $24 $38 $39 reversed $15 $-1 #
coedge $-1 -1 $-1 $16 $16 $40 $41 reversed $8 $-1 #
coedge $-1 -1 $-1 $40 $40 $16 $27 forward $31 $-1 #
edge $-1 -1 $-1 $42 0.4989874900571353855 $43 1.496962470171382398 $26 $44 forward @7 unknown #
NMx_Hole_Brep_tag-NMx_Brep_Name_tag-NMx_Brep_tag-NamingMatching-attrib $-1 -1 $-1 $18 $12 43 1 82 -1 2 7 #
DXID-attrib $-1 -1 $45 $-1 $19 @10 ASM ENTITY @1 3 #
face $46 -1 $-1 $47 $48 $4 $-1 $49 reversed single #
loop $-1 -1 $-1 $50 $26 $19 #
cone-surface $-1 -1 $-1 0 0 0 0 0 1 -15 0 0 1 I I 0 1 15 forward I I I I #
loop $-1 -1 $-1 $-1 $36 $12 #
coedge $-1 -1 $-1 $34 $34 $51 $52 reversed $20 $-1 #
coedge $-1 -1 $-1 $35 $35 $-1 $53 reversed $22 $-1 #
coedge $-1 -1 $-1 $36 $36 $23 $37 reversed $33 $-1 #
edge $54 -1 $-1 $55 0 $55 6.283185307179586232 $36 $56 forward @7 unknown #
coedge $-1 -1 $-1 $38 $38 $24 $39 forward $50 $-1 #
edge $-1 -1 $-1 $57 0 $57 1.995949960228494469 $38 $58 forward @7 unknown #
coedge $-1 -1 $-1 $26 $26 $25 $41 forward $31 $-1 #
edge $-1 -1 $-1 $43 1.496962470171382398 $42 2.494937450285629854 $40 $59 forward @7 unknown #
vertex $-1 -1 $-1 $27 $60 #
vertex $-1 -1 $-1 $27 $61 #
intcurve-curve $-1 -1 $-1 forward { surfintcur full nubs 3 open 9 
	0.4989874900571353855 3 0.6237292036334909362 2 0.7484709172098464869 2 0.873222948662058629 2 0.997974980114270771 2 
	1.122727011566468036 2 1.247479043018665523 2 1.372220756595023961 2 1.496962470171382398 3 
	15 -3.469446951953614189e-16 1156.699999999999818 
	15 -0.415805711921185539 1156.699999999999818 
	14.98096863979081306 -0.858408800466566313 1156.783376618028569 
	14.91220336963066728 -1.671070832805851669 1157.120580994908778 
	14.8634063176911404 -2.041239489395634266 1157.374334733564183 
	14.7713667437169498 -2.62568943650841824 1157.958784680676899 
	14.72204347690439619 -2.879424272932402662 1158.328943147057316 
	14.65206597838853853 -3.216614909067159189 1159.141569495487374 
	14.63249807790863954 -3.299999999999999822 1159.584159895159246 
	14.63249807790863954 -3.299999999999999822 1160.415840104840527 
	14.65206597838852254 -3.21661490906723424 1160.858430504512398 
	14.72204347690436776 -2.879424272932550988 1161.671056852942229 
	14.77136674371695158 -2.625689436508402252 1162.041215319322646 
	14.86340631769113507 -2.04123948939568578 1162.62566526643559 
	14.91220336963065662 -1.671070832805961803 1162.879419005091222 
	14.98096863979080595 -0.8584088004666678984 1163.216623381971431 
	15 -0.4158057119211943098 1163.299999999999727 
	15 4.510281037539698445e-16 1163.299999999999727 
	0.001955106613270274699 
	
	cone -1185.749765771369994 3.834758505292833933e-16 1160 1 0 0 0 3.300000000000000266 0 1 I I -0 1 3.300000000000000266 reversed I I I I 
	cone 0 0 0 0 0 1 -15 0 0 1 I I 0 1 15 forward I I I I 
	nullbs 
	nullbs 
	I I 
	0 
	0 
	0 
	} I I #
NMx_Feature_Orientation-NamingMatching-attrib $-1 -1 $62 $29 $19 43 $-1 $-1 #
DXID-attrib $-1 -1 $63 $-1 $30 @10 ASM ENTITY @1 4 #
face $64 -1 $-1 $-1 $65 $4 $-1 $66 forward single #
loop $-1 -1 $-1 $67 $51 $30 #
plane-surface $-1 -1 $-1 -1.139945760671336101e-15 -2.467162276944792422e-16 0 0 0 1 10 0 0 forward_v I I I I #
loop $-1 -1 $-1 $68 $38 $19 #
coedge $-1 -1 $-1 $51 $51 $34 $52 forward $48 $-1 #
edge $-1 -1 $-1 $69 0 $69 6.283185307179586232 $51 $70 forward @7 unknown #
edge $-1 -1 $-1 $71 1 $71 0 $35 $-1 forward @7 unknown #
NMx_Hole_Brep_tag-NMx_Brep_Name_tag-NMx_Brep_tag-NamingMatching-attrib $-1 -1 $-1 $-1 $37 43 1 82 -1 2 8 #
vertex $-1 -1 $-1 $37 $72 #
ellipse-curve $-1 -1 $-1 0 0 30 -0 -0 -1 -3.300000000000000266 0 0 1 I I #
vertex $-1 -1 $-1 $39 $73 #
intcurve-curve $-1 -1 $-1 forward { surfintcur full nubs 3 periodic 17 
	0 3 0.1247520314521974594 2 0.2495040629043949187 2 0.3742457764807534115 2 0.4989874900571119043 2 
	0.6237292036334703971 2 0.7484709172098288343 2 0.8732229486620262104 2 0.9979749801142236976 2 1.12272701156643584 2 
	1.247479043018647982 2 1.372220756595003532 2 1.496962470171359083 2 1.621704183747714634 2 1.746445897324070184 2 
	1.871197928776282327 2 1.995949960228494469 3 
	-14.63249807790863777 3.300000000000000711 1160 
	-14.63249807790863777 3.300000000000000711 1160.415840104840527 
	-14.65206597838852254 3.216614909067234684 1160.858430504512398 
	-14.72204347690436776 2.879424272932551432 1161.671056852942229 
	-14.77136674371695158 2.625689436508404029 1162.041215319322646 
	-14.86340631769113507 2.041239489395687556 1162.62566526643559 
	-14.91220336963065662 1.671070832805963358 1162.879419005091222 
	-14.98096863979080595 0.8584088004666692306 1163.216623381971431 
	-15 0.415805711921195531 1163.299999999999727 
	-15 -0.4158057119211943653 1163.299999999999727 
	-14.98096863979080595 -0.8584088004666681204 1163.216623381971431 
	-14.91220336963065662 -1.671070832805962025 1162.879419005091222 
	-14.86340631769113507 -2.04123948939568578 1162.62566526643559 
	-14.77136674371695158 -2.625689436508401364 1162.041215319322646 
	-14.72204347690436776 -2.879424272932550544 1161.671056852942229 
	-14.65206597838852254 -3.216614909067233796 1160.858430504512398 
	-14.63249807790863954 -3.299999999999999822 1160.415840104840527 
	-14.63249807790863954 -3.299999999999999822 1159.584159895159246 
	-14.65206597838853853 -3.216614909067159189 1159.141569495487374 
	-14.72204347690439619 -2.879424272932402662 1158.328943147057316 
	-14.7713667437169498 -2.62568943650841824 1157.958784680676899 
	-14.8634063176911404 -2.041239489395634266 1157.374334733564183 
	-14.91220336963066728 -1.671070832805851669 1157.120580994908778 
	-14.98096863979081306 -0.858408800466566313 1156.783376618028569 
	-15 -0.415805711921185539 1156.699999999999818 
	-15 0.4158057119211847064 1156.699999999999818 
	-14.98096863979081306 0.8584088004665656468 1156.783376618028569 
	-14.91220336963066728 1.671070832805850337 1157.120580994908778 
	-14.8634063176911404 2.041239489395632489 1157.374334733564183 
	-14.7713667437169498 2.625689436508416463 1157.958784680676899 
	-14.72204347690439619 2.879424272932403106 1158.328943147057316 
	-14.65206597838853853 3.216614909067159633 1159.141569495487374 
	-14.63249807790863777 3.300000000000000711 1159.584159895159246 
	-14.63249807790863777 3.300000000000000711 1160 
	0.001955106613269165343 
	
	cone -1185.749765771369994 3.834758505292833933e-16 1160 1 0 0 0 3.300000000000000266 0 1 I I -0 1 3.300000000000000266 reversed I I I I 
	cone 0 0 0 0 0 1 -15 0 0 1 I I 0 1 15 forward I I I I 
	nullbs 
	nullbs 
	I I 
	0 
	0 
	0 
	} I I #
intcurve-curve $-1 -1 $-1 forward { surfintcur full nubs 3 open 9 
	1.496962470171382398 3 1.621704183747740835 2 1.746445897324099494 2 1.871197928776296981 2 1.995949960228494469 3 
	2.120701991680706833 2 2.245454023132918753 2 2.370195736709274303 2 2.494937450285629854 3 
	15 4.510281037539698445e-16 1163.299999999999727 
	15 0.415805711921195198 1163.299999999999727 
	14.98096863979080595 0.8584088004666684535 1163.216623381971431 
	14.91220336963065662 1.671070832805962914 1162.879419005091222 
	14.86340631769113507 2.041239489395687556 1162.62566526643559 
	14.77136674371695158 2.625689436508404029 1162.041215319322646 
	14.72204347690436776 2.879424272932551432 1161.671056852942229 
	14.65206597838852254 3.216614909067234684 1160.858430504512398 
	14.63249807790863777 3.300000000000000711 1160.415840104840527 
	14.63249807790863777 3.300000000000000711 1160 
	14.63249807790863777 3.300000000000000711 1159.584159895159246 
	14.65206597838853853 3.216614909067159633 1159.141569495487374 
	14.72204347690439619 2.879424272932403106 1158.328943147057316 
	14.7713667437169498 2.625689436508416463 1157.958784680676899 
	14.8634063176911404 2.041239489395632489 1157.374334733564183 
	14.91220336963066728 1.671070832805850337 1157.120580994908778 
	14.98096863979081306 0.8584088004665656468 1156.783376618028569 
	15 0.4158057119211847064 1156.699999999999818 
	15 -3.469446951953614189e-16 1156.699999999999818 
	0.001955106613270274699 
	
	cone -1185.749765771369994 3.834758505292833933e-16 1160 1 0 0 0 3.300000000000000266 0 1 I I -0 1 3.300000000000000266 reversed I I I I 
	cone 0 0 0 0 0 1 -15 0 0 1 I I 0 1 15 forward I I I I 
	nullbs 
	nullbs 
	I I 
	0 
	0 
	0 
	} I I #
point $-1 -1 $-1 15 0 1156.700000000000045 #
point $-1 -1 $-1 15 0 1163.299999999999955 #
NMx_Sweep_Generated_Brep_tag-NMx_Brep_Name_tag-NMx_Brep_tag-NamingMatching-attrib $-1 -1 $-1 $45 $19 43 1 29 -1 3 0 20 0 0 0 0 0 0 0 #
NMx_Matched_Entity-NamingMatching-attrib $-1 -1 $74 $46 $30 43 1 57 -1 1 1 #
DXID-attrib $-1 -1 $75 $-1 $47 @10 ASM ENTITY @1 5 #
loop $-1 -1 $-1 $-1 $76 $47 #
plane-surface $-1 -1 $-1 -1.139945760671336101e-15 -2.467162276944792422e-16 1200 0 0 1 10 0 0 forward_v I I I I #
loop $-1 -1 $-1 $-1 $77 $30 #
loop $-1 -1 $-1 $78 $79 $19 #
vertex $-1 -1 $-1 $52 $80 #
ellipse-curve $-1 -1 $-1 0 0 0 0 0 1 -3.300000000000000266 0 0 1 I I #
vertex $81 -1 $-1 $53 $82 #
point $-1 -1 $-1 -3.300000000000000266 0 30 #
point $-1 -1 $-1 -14.63249807790863954 3.299999999999994049 1159.999999999999773 #
NMx_Sweep_Generated_Brep_tag-NMx_Brep_Name_tag-NMx_Brep_tag-NamingMatching-attrib $-1 -1 $-1 $63 $30 43 1 29 -1 0 0 4 0 0 0 0 0 0 0 #
NMx_Sweep_Generated_Brep_tag-NMx_Brep_Name_tag-NMx_Brep_tag-NamingMatching-attrib $-1 -1 $-1 $64 $47 43 1 29 -1 0 0 12 0 0 0 0 0 0 0 #
coedge $-1 -1 $-1 $76 $76 $79 $83 forward $65 $-1 #
coedge $-1 -1 $-1 $77 $77 $84 $85 forward $67 $-1 #
loop $-1 -1 $-1 $-1 $84 $19 #
coedge $-1 -1 $-1 $79 $79 $76 $83 reversed $68 $-1 #
point $-1 -1 $-1 -3.300000000000000266 0 0 #
NMx_Hole_Brep_tag-NMx_Brep_Name_tag-NMx_Brep_tag-NamingMatching-attrib $-1 -1 $-1 $-1 $71 43 1 82 -1 2 10 #
point $-1 -1 $-1 0 0 31.98284004279094717 #
edge $86 -1 $-1 $87 -3.141592653589793116 $87 3.141592653589793116 $79 $88 forward @7 unknown #
coedge $-1 -1 $-1 $84 $84 $77 $85 reversed $78 $-1 #
edge $89 -1 $-1 $90 -3.141592653589793116 $90 3.141592653589793116 $77 $91 forward @7 unknown #
NMx_Matched_Entity-NamingMatching-attrib $-1 -1 $92 $-1 $83 43 1 122 -1 7 0 #
vertex $93 -1 $-1 $83 $94 #
ellipse-curve $-1 -1 $-1 0 0 1200 0 0 1 -15 -0 -0 1 I I #
NMx_Generated_Brep_tag-NMx_Brep_Name_tag-NMx_Brep_tag-NamingMatching-attrib $-1 -1 $-1 $-1 $85 43 1 29 -1 3 0 2 #
vertex $95 -1 $-1 $85 $96 #
ellipse-curve $-1 -1 $-1 0 0 0 0 0 -1 -15 -0 -0 1 I I #
NMx_Sweep_Generated_Brep_tag-NMx_Brep_Name_tag-NMx_Brep_tag-NamingMatching-attrib $-1 -1 $-1 $86 $83 43 1 29 -1 3 0 10 0 0 0 0 0 0 0 #
NMx_Matched_Entity-NamingMatching-attrib $-1 -1 $97 $-1 $87 43 1 122 -1 5 1 #
point $-1 -1 $-1 15 1.836970198721029589e-15 1200 #
NMx_Generated_Brep_tag-NMx_Brep_Name_tag-NMx_Brep_tag-NamingMatching-attrib $-1 -1 $-1 $-1 $90 43 1 29 -1 3 0 33554433 #
point $-1 -1 $-1 15 1.836970198721029589e-15 0 #
NMx_Sweep_Generated_Brep_tag-NMx_Brep_Name_tag-NMx_Brep_tag-NamingMatching-attrib $-1 -1 $-1 $93 $87 43 1 29 -1 3 0 9 0 0 0 0 0 0 0 #
End-of-ACIS-data 