700 0 1 0           
30 Autodesk Translation Framework 21 ASM 228.6.0.65535 OSX 24 Tue Feb 14 11:57:39 2023 
1 9.999999999999999547e-07 1.000000000000000036e-10 
body $1 -1 $-1 $2 $-1 $3 #
rgb_color-st-attrib $-1 -1 $-1 $-1 $0 0.7490196078431372584 0.7490196078431372584 0.7490196078431372584 #
lump $-1 -1 $-1 $-1 $4 $0 #
transform $-1 -1 1 0 0 0 1 0 0 0 1 0 0 0 1 no_rotate no_reflect no_shear #
shell $-1 -1 $-1 $-1 $-1 $5 $-1 $2 #
face $6 -1 $-1 $7 $8 $4 $-1 $9 reversed single #
DXID-attrib $-1 -1 $10 $-1 $5 @10 ASM ENTITY @1 0 #
face $11 -1 $-1 $12 $13 $4 $-1 $14 reversed single #
loop $-1 -1 $-1 $15 $16 $5 #
cone-surface $-1 -1 $-1 -428.9181690868648502 6.896375503161215596e-16 202 1 0 0 0 2.75 0 1 I I -0 1 2.75 reversed I I I I #
NMx_Hole_Brep_tag-NMx_Brep_Name_tag-NMx_Brep_tag-NamingMatching-attrib $-1 -1 $-1 $6 $5 43 1 98 -1 2 7 #
DXID-attrib $-1 -1 $17 $-1 $7 @10 ASM ENTITY @1 1 #
face $18 -1 $-1 $19 $20 $4 $-1 $21 reversed single #
loop $-1 -1 $-1 $22 $23 $7 #
cone-surface $-1 -1 $-1 -428.9181690868648502 6.896375503161215596e-16 -202 1 0 0 0 2.75 0 1 I I -0 1 2.75 reversed I I I I #
loop $-1 -1 $-1 $-1 $24 $5 #
coedge $-1 -1 $-1 $25 $25 $26 $27 reversed $8 $-1 #
NMx_Hole_Brep_tag-NMx_Brep_Name_tag-NMx_Brep_tag-NamingMatching-attrib $-1 -1 $-1 $11 $7 43 1 98 -1 3 7 #
DXID-attrib $-1 -1 $28 $-1 $12 @10 ASM ENTITY @1 2 #
face $29 -1 $-1 $30 $31 $4 $-1 $32 forward single #
loop $-1 -1 $-1 $-1 $33 $12 #
plane-surface $-1 -1 $-1 -7.196863213779328638e-16 0 -220 0 0 1 10 0 0 forward_v I I I I #
loop $-1 -1 $-1 $-1 $34 $7 #
coedge $-1 -1 $-1 $35 $35 $36 $37 reversed $13 $-1 #
coedge $-1 -1 $-1 $24 $24 $38 $39 reversed $15 $-1 #
coedge $-1 -1 $-1 $16 $16 $40 $41 reversed $8 $-1 #
coedge $-1 -1 $-1 $40 $40 $16 $27 forward $31 $-1 #
edge $-1 -1 $-1 $42 0.4158229083809344417 $43 1.247468725142801382 $26 $44 forward @7 unknown #
NMx_Sweep_Generated_Brep_tag-NMx_Brep_Name_tag-NMx_Brep_tag-NamingMatching-attrib $-1 -1 $-1 $18 $12 43 1 40 -1 0 0 4108 0 0 0 0 0 0 0 #
DXID-attrib $-1 -1 $45 $-1 $19 @10 ASM ENTITY @1 3 #
face $46 -1 $-1 $-1 $47 $4 $-1 $48 forward single #
loop $-1 -1 $-1 $49 $26 $19 #
cone-surface $-1 -1 $-1 0 0 0 0 0 1 -12.5 0 0 1 I I 0 1 12.5 forward I I I I #
coedge $-1 -1 $-1 $33 $33 $50 $51 forward $20 $-1 #
coedge $-1 -1 $-1 $34 $34 $52 $53 reversed $22 $-1 #
coedge $-1 -1 $-1 $23 $23 $54 $55 reversed $13 $-1 #
coedge $-1 -1 $-1 $54 $54 $23 $37 forward $56 $-1 #
edge $-1 -1 $-1 $57 0.4158229083809325544 $58 1.247468725142799828 $36 $59 forward @7 unknown #
coedge $-1 -1 $-1 $38 $38 $24 $39 forward $49 $-1 #
edge $-1 -1 $-1 $60 0 $60 1.663291633523733992 $38 $61 forward @7 unknown #
coedge $-1 -1 $-1 $26 $26 $25 $41 forward $31 $-1 #
edge $-1 -1 $-1 $43 1.247468725142801382 $42 2.079114541904668378 $40 $62 forward @7 unknown #
vertex $-1 -1 $-1 $27 $63 #
vertex $-1 -1 $-1 $27 $64 #
intcurve-curve $-1 -1 $-1 forward { surfintcur full nubs 3 open 9 
	0.4158229083809344417 3 0.5197743363612327139 2 0.6237257643415309305 2 0.727685790551699796 2 0.8316458167618687725 2 
	0.9356058429720359726 2 1.039565869182203173 2 1.143517297162502278 2 1.247468725142801382 3 
	12.5 1.387778780781445676e-16 199.25 
	12.5 -0.3465047599343274443 199.25 
	12.48414053315901207 -0.7153406670554917079 199.3194805150239972 
	12.42683614135889059 -1.392559027338239552 199.6004841624241806 
	12.38617193140928308 -1.701032907829717056 199.8119456113036563 
	12.3094722864307915 -2.188074530423667952 200.298987233897634 
	12.26836956408698676 -2.399520227443708631 200.6074526225478394 
	12.21005498199043515 -2.680512424222686985 201.2846412462395165 
	12.19374839825719903 -2.749999999999999112 201.6534665792994474 
	12.19374839825719903 -2.749999999999999556 202.3465334207005526 
	12.21005498199043515 -2.680512424222686985 202.7153587537604551 
	12.26836956408698676 -2.399520227443708187 203.3925473774521606 
	12.30947228643079328 -2.188074530423662178 203.7010127661023375 
	12.38617193140928308 -1.701032907829717056 204.1880543886962585 
	12.42683614135888703 -1.392559027338252431 204.399515837575791 
	12.48414053315901029 -0.7153406670554939284 204.6805194849760028 
	12.5 -0.3465047599343293316 204.7499999999999716 
	12.5 8.673617379884035472e-16 204.7499999999999716 
	0.00178797666908091105 
	
	cone -428.9181690868648502 6.896375503161215596e-16 202 1 0 0 0 2.75 0 1 I I -0 1 2.75 reversed I I I I 
	cone 0 0 0 0 0 1 -12.5 0 0 1 I I 0 1 12.5 forward I I I I 
	nullbs 
	nullbs 
	I I 
	0 
	0 
	0 
	} I I #
NMx_Feature_Orientation-NamingMatching-attrib $-1 -1 $65 $29 $19 43 $-1 $-1 #
DXID-attrib $-1 -1 $66 $-1 $30 @10 ASM ENTITY @1 4 #
loop $-1 -1 $-1 $-1 $67 $30 #
plane-surface $-1 -1 $-1 -7.196863213779328638e-16 0 220 0 0 1 10 0 0 forward_v I I I I #
loop $-1 -1 $-1 $56 $38 $19 #
coedge $-1 -1 $-1 $50 $50 $33 $51 reversed $68 $-1 #
edge $69 -1 $-1 $70 -3.141592653589793116 $70 3.141592653589793116 $50 $71 forward @7 unknown #
coedge $-1 -1 $-1 $52 $52 $34 $53 forward $72 $-1 #
edge $-1 -1 $-1 $73 0 $73 1.663291633523733992 $52 $74 forward @7 unknown #
coedge $-1 -1 $-1 $36 $36 $35 $55 forward $56 $-1 #
edge $-1 -1 $-1 $58 1.247468725142799828 $57 2.079114541904666602 $54 $75 forward @7 unknown #
loop $-1 -1 $-1 $72 $36 $19 #
vertex $-1 -1 $-1 $37 $76 #
vertex $-1 -1 $-1 $37 $77 #
intcurve-curve $-1 -1 $-1 forward { surfintcur full nubs 3 open 9 
	0.4158229083809325544 3 0.5197743363612316037 2 0.6237257643415307085 2 0.7276857905516980196 2 0.8316458167618652197 2 
	0.9356058429720341962 2 1.039565869182203173 2 1.143517297162501389 2 1.247468725142799828 3 
	12.5 1.387778780781445676e-16 -204.7499999999999716 
	12.5 -0.3465047599343300533 -204.7499999999999716 
	12.48414053315901029 -0.7153406670554945945 -204.6805194849760028 
	12.42683614135888703 -1.392559027338252653 -204.399515837575791 
	12.38617193140928308 -1.701032907829717056 -204.1880543886962585 
	12.30947228643079328 -2.188074530423662178 -203.7010127661023375 
	12.26836956408698676 -2.399520227443708187 -203.3925473774521606 
	12.21005498199043515 -2.680512424222686985 -202.7153587537604551 
	12.19374839825719903 -2.749999999999999556 -202.3465334207005526 
	12.19374839825719903 -2.749999999999999556 -201.6534665792994474 
	12.21005498199043515 -2.680512424222686541 -201.2846412462395165 
	12.26836956408698676 -2.399520227443708187 -200.6074526225478394 
	12.3094722864307915 -2.188074530423667952 -200.298987233897634 
	12.38617193140928308 -1.701032907829717056 -199.8119456113036563 
	12.42683614135889059 -1.392559027338239552 -199.6004841624241806 
	12.48414053315901207 -0.71534066705549193 -199.3194805150239972 
	12.5 -0.3465047599343272777 -199.25 
	12.5 9.714451465470119729e-16 -199.25 
	0.00178797666908091105 
	
	cone -428.9181690868648502 6.896375503161215596e-16 -202 1 0 0 0 2.75 0 1 I I -0 1 2.75 reversed I I I I 
	cone 0 0 0 0 0 1 -12.5 0 0 1 I I 0 1 12.5 forward I I I I 
	nullbs 
	nullbs 
	I I 
	0 
	0 
	0 
	} I I #
vertex $-1 -1 $-1 $39 $78 #
intcurve-curve $-1 -1 $-1 forward { surfintcur full nubs 3 periodic 17 
	0 3 0.1039600262101672279 2 0.2079200524203344558 2 0.3118714804006335051 2 0.4158229083809326099 2 
	0.5197743363612317147 2 0.6237257643415307085 2 0.7276857905516979086 2 0.8316458167618651087 2 0.9356058429720339742 2 
	1.039565869182202951 2 1.143517297162501167 2 1.247468725142799384 2 1.351420153123097823 2 1.455371581103396039 2 
	1.559331607313565016 2 1.663291633523733992 3 
	-12.19374839825719903 2.750000000000000888 202 
	-12.19374839825719903 2.750000000000000888 202.3465334207005526 
	-12.21005498199043515 2.680512424222687873 202.7153587537604551 
	-12.26836956408698676 2.399520227443709075 203.3925473774521606 
	-12.30947228643079328 2.188074530423663067 203.7010127661023375 
	-12.38617193140928308 1.70103290782971861 204.1880543886962585 
	-12.42683614135888703 1.392559027338253985 204.399515837575791 
	-12.48414053315901029 0.7153406670554957048 204.6805194849760028 
	-12.5 0.3465047599343311635 204.7499999999999716 
	-12.5 -0.3465047599343294982 204.7499999999999716 
	-12.48414053315901029 -0.7153406670554939284 204.6805194849760028 
	-12.42683614135888703 -1.392559027338252431 204.399515837575791 
	-12.38617193140928308 -1.701032907829717056 204.1880543886962585 
	-12.30947228643079328 -2.188074530423662178 203.7010127661023375 
	-12.26836956408698676 -2.399520227443708187 203.3925473774521606 
	-12.21005498199043515 -2.680512424222686985 202.7153587537604551 
	-12.19374839825719903 -2.749999999999999556 202.3465334207005526 
	-12.19374839825719903 -2.749999999999999112 201.6534665792994474 
	-12.21005498199043515 -2.680512424222686541 201.2846412462395165 
	-12.26836956408698676 -2.399520227443708187 200.6074526225478394 
	-12.3094722864307915 -2.188074530423668396 200.298987233897634 
	-12.38617193140928308 -1.701032907829717056 199.8119456113036563 
	-12.42683614135889059 -1.392559027338239552 199.6004841624241806 
	-12.48414053315901207 -0.7153406670554915969 199.3194805150239972 
	-12.5 -0.3465047599343273887 199.25 
	-12.5 0.3465047599343281659 199.25 
	-12.48414053315901207 0.7153406670554927071 199.3194805150239972 
	-12.42683614135889059 1.39255902733824044 199.6004841624241806 
	-12.38617193140928308 1.701032907829717722 199.8119456113036563 
	-12.3094722864307915 2.188074530423669284 200.298987233897634 
	-12.26836956408698676 2.399520227443709075 200.6074526225478394 
	-12.21005498199043515 2.680512424222687429 201.2846412462395165 
	-12.19374839825719903 2.750000000000000888 201.6534665792994474 
	-12.19374839825719903 2.750000000000000888 202 
	0.001787976669080377405 
	
	cone -428.9181690868648502 6.896375503161215596e-16 202 1 0 0 0 2.75 0 1 I I -0 1 2.75 reversed I I I I 
	cone 0 0 0 0 0 1 -12.5 0 0 1 I I 0 1 12.5 forward I I I I 
	nullbs 
	nullbs 
	I I 
	0 
	0 
	0 
	} I I #
intcurve-curve $-1 -1 $-1 forward { surfintcur full nubs 3 open 9 
	1.247468725142801382 3 1.351420153123100487 2 1.455371581103399592 2 1.559331607313566792 2 1.663291633523733992 3 
	1.767251659733902969 2 1.871211685944071945 2 1.975163113924370162 2 2.079114541904668378 3 
	12.5 8.673617379884035472e-16 204.7499999999999716 
	12.5 0.3465047599343310525 204.7499999999999716 
	12.48414053315901029 0.7153406670554957048 204.6805194849760028 
	12.42683614135888703 1.392559027338253985 204.399515837575791 
	12.38617193140928308 1.701032907829718388 204.1880543886962585 
	12.30947228643079328 2.188074530423663067 203.7010127661023375 
	12.26836956408698676 2.399520227443709075 203.3925473774521606 
	12.21005498199043515 2.680512424222687873 202.7153587537604551 
	12.19374839825719903 2.750000000000000888 202.3465334207005526 
	12.19374839825719903 2.750000000000000888 202 
	12.19374839825719903 2.750000000000000888 201.6534665792994474 
	12.21005498199043515 2.680512424222687429 201.2846412462395165 
	12.26836956408698676 2.399520227443709075 200.6074526225478394 
	12.3094722864307915 2.188074530423669284 200.298987233897634 
	12.38617193140928308 1.701032907829717722 199.8119456113036563 
	12.42683614135889059 1.392559027338240218 199.6004841624241806 
	12.48414053315901207 0.715340667055492041 199.3194805150239972 
	12.5 0.3465047599343277218 199.25 
	12.5 1.387778780781445676e-16 199.25 
	0.00178797666908091105 
	
	cone -428.9181690868648502 6.896375503161215596e-16 202 1 0 0 0 2.75 0 1 I I -0 1 2.75 reversed I I I I 
	cone 0 0 0 0 0 1 -12.5 0 0 1 I I 0 1 12.5 forward I I I I 
	nullbs 
	nullbs 
	I I 
	0 
	0 
	0 
	} I I #
point $-1 -1 $-1 12.5 -2.218671295934095703e-30 199.25 #
point $-1 -1 $-1 12.5 -2.218671295934095703e-30 204.7499999999999716 #
NMx_Sweep_Generated_Brep_tag-NMx_Brep_Name_tag-NMx_Brep_tag-NamingMatching-attrib $-1 -1 $-1 $45 $19 43 1 40 -1 3 0 20 0 0 1 4096 0 0 0 0 #
NMx_Sweep_Generated_Brep_tag-NMx_Brep_Name_tag-NMx_Brep_tag-NamingMatching-attrib $-1 -1 $-1 $46 $30 43 1 40 -1 0 0 12 0 0 0 0 0 0 0 #
coedge $-1 -1 $-1 $67 $67 $79 $80 forward $47 $-1 #
loop $-1 -1 $-1 $81 $50 $19 #
NMx_Matched_Entity-NamingMatching-attrib $-1 -1 $82 $-1 $51 43 1 89 -1 7 0 #
vertex $83 -1 $-1 $51 $84 #
ellipse-curve $-1 -1 $-1 0 0 -220 0 0 -1 -12.5 -0 -0 1 I I #
loop $-1 -1 $-1 $68 $52 $19 #
vertex $-1 -1 $-1 $53 $85 #
intcurve-curve $-1 -1 $-1 forward { surfintcur full nubs 3 periodic 17 
	0 3 0.1039600262101689349 2 0.2079200524203378697 2 0.3118714804006361141 2 0.4158229083809343862 2 
	0.5197743363612327139 2 0.6237257643415310415 2 0.727685790551700018 2 0.8316458167618688835 2 0.9356058429720361946 2 
	1.039565869182203395 2 1.1435172971625025 2 1.247468725142801604 2 1.351420153123100487 2 1.455371581103399592 2 
	1.559331607313566792 2 1.663291633523733992 3 
	-12.19374839825719903 2.750000000000000888 -202 
	-12.19374839825719903 2.750000000000000888 -201.6534665792994474 
	-12.21005498199043515 2.680512424222687429 -201.2846412462395165 
	-12.26836956408698676 2.399520227443709075 -200.6074526225478394 
	-12.3094722864307915 2.188074530423669728 -200.298987233897634 
	-12.38617193140928308 1.701032907829718166 -199.8119456113036563 
	-12.42683614135889059 1.392559027338242661 -199.6004841624241521 
	-12.48414053315901029 0.7153406670554808278 -199.3194805150239404 
	-12.5 0.3465047599343283879 -199.2499999999999716 
	-12.5 -0.3465047599343268336 -199.25 
	-12.48414053315901207 -0.7153406670554912639 -199.3194805150239972 
	-12.42683614135889059 -1.39255902733823933 -199.6004841624241806 
	-12.38617193140928308 -1.70103290782971639 -199.8119456113036563 
	-12.3094722864307915 -2.188074530423667952 -200.298987233897634 
	-12.26836956408698676 -2.399520227443708187 -200.6074526225478394 
	-12.21005498199043515 -2.680512424222686541 -201.2846412462395165 
	-12.19374839825719903 -2.749999999999999556 -201.6534665792994474 
	-12.19374839825719903 -2.749999999999999556 -202.3465334207005526 
	-12.21005498199043515 -2.680512424222686985 -202.7153587537604551 
	-12.26836956408698676 -2.399520227443708187 -203.3925473774521606 
	-12.30947228643079328 -2.188074530423662178 -203.7010127661023375 
	-12.38617193140928308 -1.701032907829717278 -204.1880543886962585 
	-12.42683614135888703 -1.392559027338252653 -204.399515837575791 
	-12.48414053315901029 -0.7153406670554942615 -204.6805194849760028 
	-12.5 -0.3465047599343301088 -204.7499999999999716 
	-12.5 0.3465047599343298312 -204.7499999999999716 
	-12.48414053315901029 0.7153406670554940394 -204.6805194849760028 
	-12.42683614135888703 1.392559027338252653 -204.399515837575791 
	-12.38617193140928308 1.701032907829717722 -204.1880543886962585 
	-12.30947228643079328 2.188074530423663067 -203.7010127661023375 
	-12.26836956408698676 2.399520227443709075 -203.3925473774521606 
	-12.21005498199043515 2.680512424222687873 -202.7153587537604551 
	-12.19374839825719903 2.750000000000000888 -202.3465334207005526 
	-12.19374839825719903 2.750000000000000888 -202 
	0.00178797666908091105 
	
	cone -428.9181690868648502 6.896375503161215596e-16 -202 1 0 0 0 2.75 0 1 I I -0 1 2.75 reversed I I I I 
	cone 0 0 0 0 0 1 -12.5 0 0 1 I I 0 1 12.5 forward I I I I 
	nullbs 
	nullbs 
	I I 
	0 
	0 
	0 
	} I I #
intcurve-curve $-1 -1 $-1 forward { surfintcur full nubs 3 open 9 
	1.247468725142799828 3 1.351420153123098045 2 1.455371581103396261 2 1.559331607313565238 2 1.663291633523734214 3 
	1.767251659733901414 2 1.871211685944068837 2 1.975163113924367719 2 2.079114541904666602 3 
	12.5 9.714451465470119729e-16 -199.25 
	12.5 0.3465047599343283879 -199.25 
	12.48414053315901207 0.7153406670554928182 -199.3194805150239972 
	12.42683614135889059 1.392559027338240663 -199.6004841624241806 
	12.38617193140928308 1.701032907829718166 -199.8119456113036563 
	12.3094722864307915 2.188074530423669728 -200.298987233897634 
	12.26836956408698676 2.399520227443709075 -200.6074526225478394 
	12.21005498199043515 2.680512424222687429 -201.2846412462395165 
	12.19374839825719903 2.750000000000000888 -201.6534665792994474 
	12.19374839825719903 2.750000000000000888 -202 
	12.19374839825719903 2.750000000000000888 -202.3465334207005526 
	12.21005498199043515 2.680512424222687873 -202.7153587537604551 
	12.26836956408698676 2.399520227443709075 -203.3925473774521606 
	12.30947228643079328 2.188074530423663067 -203.7010127661023375 
	12.38617193140928308 1.701032907829718166 -204.1880543886962585 
	12.42683614135888703 1.392559027338253763 -204.399515837575791 
	12.48414053315901029 0.7153406670554951496 -204.6805194849760028 
	12.5 0.3465047599343302753 -204.7499999999999716 
	12.5 1.387778780781445676e-16 -204.7499999999999716 
	0.00178797666908091105 
	
	cone -428.9181690868648502 6.896375503161215596e-16 -202 1 0 0 0 2.75 0 1 I I -0 1 2.75 reversed I I I I 
	cone 0 0 0 0 0 1 -12.5 0 0 1 I I 0 1 12.5 forward I I I I 
	nullbs 
	nullbs 
	I I 
	0 
	0 
	0 
	} I I #
point $-1 -1 $-1 12.5 -2.218671295934095703e-30 -204.7499999999999716 #
point $-1 -1 $-1 12.5 -2.218671295934095703e-30 -199.25 #
point $-1 -1 $-1 -12.19374839825719903 2.750000000000000888 202 #
coedge $-1 -1 $-1 $79 $79 $67 $80 reversed $81 $-1 #
edge $86 -1 $-1 $87 -3.141592653589793116 $87 3.141592653589793116 $79 $88 forward @7 unknown #
loop $-1 -1 $-1 $-1 $79 $19 #
NMx_Sweep_Generated_Brep_tag-NMx_Brep_Name_tag-NMx_Brep_tag-NamingMatching-attrib $-1 -1 $-1 $69 $51 43 1 40 -1 3 0 4106 0 0 0 0 0 0 0 #
NMx_Matched_Entity-NamingMatching-attrib $-1 -1 $89 $-1 $70 43 1 89 -1 5 1 #
point $-1 -1 $-1 12.5 1.530808498934191521e-15 -220 #
point $-1 -1 $-1 -12.19374839825719548 2.750000000000001776 -202 #
NMx_Matched_Entity-NamingMatching-attrib $-1 -1 $90 $-1 $80 43 1 81 -1 4 0 #
vertex $91 -1 $-1 $80 $92 #
ellipse-curve $-1 -1 $-1 0 0 220 0 0 1 -12.5 -0 -0 1 I I #
NMx_Sweep_Generated_Brep_tag-NMx_Brep_Name_tag-NMx_Brep_tag-NamingMatching-attrib $-1 -1 $-1 $83 $70 43 1 40 -1 3 0 4105 0 0 0 0 0 0 0 #
NMx_Sweep_Generated_Brep_tag-NMx_Brep_Name_tag-NMx_Brep_tag-NamingMatching-attrib $-1 -1 $-1 $86 $80 43 1 40 -1 3 0 10 0 0 0 0 0 0 0 #
NMx_Matched_Entity-NamingMatching-attrib $-1 -1 $93 $-1 $87 43 1 81 -1 2 1 #
point $-1 -1 $-1 12.5 1.530808498934191521e-15 220 #
NMx_Sweep_Generated_Brep_tag-NMx_Brep_Name_tag-NMx_Brep_tag-NamingMatching-attrib $-1 -1 $-1 $91 $87 43 1 40 -1 3 0 9 0 0 0 0 0 0 0 #
End-of-ACIS-data 