700 0 1 0           
30 Autodesk Translation Framework 21 ASM 228.6.0.65535 OSX 24 Tue Feb 14 11:59:03 2023 
1 9.999999999999999547e-07 1.000000000000000036e-10 
body $1 -1 $-1 $2 $-1 $3 #
rgb_color-st-attrib $-1 -1 $-1 $-1 $0 0.9960784313725490335 0.9960784313725490335 1 #
lump $-1 -1 $-1 $-1 $4 $0 #
transform $-1 -1 1 0 0 0 1 0 0 0 1 0 0 0 1 no_rotate no_reflect no_shear #
shell $-1 -1 $-1 $-1 $-1 $5 $-1 $2 #
face $6 -1 $-1 $7 $8 $4 $-1 $9 reversed single #
DXID-attrib $-1 -1 $10 $-1 $5 @10 ASM ENTITY @1 0 #
face $11 -1 $-1 $12 $13 $4 $-1 $14 reversed single #
loop $-1 -1 $-1 $15 $16 $5 #
cone-surface $-1 -1 $-1 0 21.23413567771363475 -23.53884310917128175 0 0.9848077530122081313 -0.1736481776669300814 0 2.648134709420681965 15.01831823343617245 1 I I 0 1 15.24999999999999645 forward I I I I #
NMx_Feature_Orientation-NamingMatching-attrib $-1 -1 $17 $6 $5 43 $-1 $-1 #
DXID-attrib $-1 -1 $18 $-1 $7 @10 ASM ENTITY @1 1 #
face $19 -1 $-1 $20 $21 $4 $-1 $22 reversed single #
loop $-1 -1 $-1 $-1 $23 $7 #
plane-surface $-1 -1 $-1 0 6.6481347094206793 -5.481681766563837321 0 -0.9848077530122081313 0.1736481776669300814 0 -1.736481776669300814 -9.848077530122081313 forward_v I I I I #
loop $-1 -1 $-1 $24 $25 $5 #
coedge $-1 -1 $-1 $16 $16 $26 $27 reversed $8 $-1 #
NMx_Sweep_Generated_Brep_tag-NMx_Brep_Name_tag-NMx_Brep_tag-NamingMatching-attrib $-1 -1 $-1 $10 $5 43 1 975 -1 11 0 20 0 0 0 0 0 0 0 #
NMx_Feature_Orientation-NamingMatching-attrib $-1 -1 $28 $11 $7 43 $-1 $-1 #
DXID-attrib $-1 -1 $29 $-1 $12 @10 ASM ENTITY @1 2 #
face $30 -1 $-1 $31 $32 $4 $-1 $33 reversed single #
loop $-1 -1 $-1 $34 $35 $12 #
cone-surface $-1 -1 $-1 -49.03029607687672353 20 -23.49999999999998224 1 0 -3.505967446184704423e-16 -9.641410477007938274e-16 0 -2.75 1 I I -0 1 2.75 reversed I I I I #
coedge $-1 -1 $-1 $23 $23 $36 $37 forward $13 $-1 #
loop $-1 -1 $-1 $38 $39 $5 #
coedge $-1 -1 $-1 $25 $25 $40 $41 reversed $15 $-1 #
coedge $-1 -1 $-1 $26 $26 $16 $27 forward $42 $-1 #
edge $-1 -1 $-1 $43 0 $43 1.661392261007366145 $26 $44 forward @7 unknown #
NMx_Sweep_Generated_Brep_tag-NMx_Brep_Name_tag-NMx_Brep_tag-NamingMatching-attrib $-1 -1 $-1 $18 $7 43 1 975 -1 9 0 20 0 0 0 0 0 0 0 #
NMx_Hole_Brep_tag-NMx_Brep_Name_tag-NMx_Brep_tag-NamingMatching-attrib $-1 -1 $-1 $19 $12 43 1 425 -1 2 7 #
DXID-attrib $-1 -1 $45 $-1 $20 @10 ASM ENTITY @1 3 #
face $46 -1 $-1 $47 $42 $4 $-1 $22 reversed single #
loop $-1 -1 $-1 $48 $49 $20 #
cone-surface $-1 -1 $-1 0 -36.03029607687673064 0 0 1 0 3.300000000000000266 0 0 1 I I -0 1 3.300000000000000266 reversed I I I I #
loop $-1 -1 $-1 $-1 $40 $12 #
coedge $-1 -1 $-1 $35 $35 $50 $51 reversed $21 $-1 #
coedge $-1 -1 $-1 $36 $36 $23 $37 reversed $38 $-1 #
edge $52 -1 $-1 $53 -1.570796326794896558 $53 4.712388980384689674 $23 $54 forward @7 unknown #
loop $-1 -1 $-1 $-1 $36 $5 #
coedge $-1 -1 $-1 $39 $39 $55 $56 reversed $24 $-1 #
coedge $-1 -1 $-1 $40 $40 $25 $41 forward $34 $-1 #
edge $-1 -1 $-1 $57 0 $57 1.661392261007366145 $40 $58 forward @7 unknown #
loop $-1 -1 $-1 $59 $26 $31 #
vertex $-1 -1 $-1 $27 $60 #
intcurve-curve $-1 -1 $-1 forward { surfintcur full nubs 3 periodic 17 
	0 3 0.1038447741540332037 2 0.2076895483080664073 2 0.3116133606973970349 2 0.4155371730867276625 2 
	0.5192912895090004977 2 0.6230454059312734438 2 0.7268707656342267009 2 0.8306961253371799581 2 0.9344948363746672371 2 
	1.038293547412154627 2 1.142074313854714696 2 1.245855080297274986 2 1.349748491098874403 2 1.453641901900473599 2 
	1.557517081453919872 2 1.661392261007366145 3 
	14.96665350894047286 19.52246751141594316 -26.20822132078357924 
	14.96665350894047286 19.18157704909362948 -26.14811313480997157 
	14.98072276608843367 18.8305914382520605 -26.01581433770348184 
	15.03154806473727589 18.21249814775327991 -25.62171526366946495 
	15.06757912532781951 17.94531081329513356 -25.35994675531341258 
	15.13600734237807011 17.54989367446717807 -24.79549575908249892 
	15.17291434296195796 17.39512077393140643 -24.45476301355909854 
	15.22772684544891497 17.23595912697303234 -23.73884369282611573 
	15.24498462050305037 17.23162875235857783 -23.36359469805617906 
	15.25297635846875721 17.35183038796840904 -22.68189734733383034 
	15.24427034248469326 17.48399720464298923 -22.33098235988285296 
	15.20526044356490658 17.87805964964506344 -21.71275591673344607 
	15.17560850964131625 18.13992888057029162 -21.445386670848535 
	15.11867909094375761 18.70472830618354365 -21.04974798300519367 
	15.08767755412683087 19.04562696564902069 -20.89497652517265891 
	15.04358754539227228 19.76158880356879166 -20.73592059084407424 
	15.03121065771826892 20.13670575793489093 -20.73168173085633015 
	15.03121065771826892 20.8182717398586874 -20.85186020260255191 
	15.04358104515876882 21.16923576940095231 -20.98409093415231652 
	15.08765224214968903 21.78750987124621474 -21.37827440834024983 
	15.11864211932647528 22.05488601537600957 -21.64020267898348493 
	15.17557278824576628 22.45041603588341417 -22.20507808937780325 
	15.20523702159285229 22.60513438650843199 -22.54595007111329963 
	15.24426559310165352 22.76409289418365844 -23.26182578541715529 
	15.25297738399891578 22.76828845426578951 -23.63687484650979442 
	15.24498579039878265 22.64808899002074938 -24.31855988281046876 
	15.22773693448072763 22.51573413969123294 -24.66960545466898225 
	15.172949326972752 22.12148726221060002 -25.28778827457026779 
	15.13605762771417851 21.85962873453436117 -25.55500406090166265 
	15.06762843938084373 21.29509120235394093 -25.95029749653669882 
	15.03158149845742741 20.95441597967586489 -26.10499553550405238 
	14.98073116535316096 20.2386313033438654 -26.26404890279962601 
	14.96665350894047286 19.8634577853151697 -26.26834710623118241 
	14.96665350894047286 19.52246751141594316 -26.20822132078357924 
	0.001772782286433980357 
	
	cone -49.03029607687672353 20 -23.49999999999998224 1 0 -3.505967446184704423e-16 -9.641410477007938274e-16 0 -2.75 1 I I 0 -1 2.75 reversed I I I I 
	cone 0 21.23413567771363475 -23.53884310917128175 0 0.9848077530122081313 -0.1736481776669300814 0 2.648134709420681965 15.01831823343617245 1 I I -0 -1 15.24999999999999645 forward I I I I 
	nullbs 
	nullbs 
	I I 
	0 
	0 
	0 
	} I I #
NMx_Hole_Brep_tag-NMx_Brep_Name_tag-NMx_Brep_tag-NamingMatching-attrib $-1 -1 $-1 $30 $20 43 1 928 -1 2 7 #
DXID-attrib $-1 -1 $61 $-1 $31 @10 ASM ENTITY @1 4 #
face $62 -1 $-1 $63 $64 $4 $-1 $65 forward single #
loop $-1 -1 $-1 $-1 $66 $20 #
coedge $-1 -1 $-1 $49 $49 $67 $68 reversed $32 $-1 #
coedge $-1 -1 $-1 $50 $50 $35 $51 forward $69 $-1 #
edge $-1 -1 $-1 $70 -3.141592653589793116 $70 3.141592653589793116 $50 $71 forward @7 unknown #
NMx_Sweep_Generated_Brep_tag-NMx_Brep_Name_tag-NMx_Brep_tag-NamingMatching-attrib $-1 -1 $-1 $-1 $37 43 1 975 -1 8 0 18 0 0 0 0 0 0 0 #
vertex $72 -1 $-1 $37 $73 #
ellipse-curve $-1 -1 $-1 0 3.999999999999995559 -20.50000000000000711 0 0.9848077530122081313 -0.1736481776669300814 15.24999999999999645 0 0 1 I I #
coedge $-1 -1 $-1 $55 $55 $39 $56 forward $74 $-1 #
edge $-1 -1 $-1 $75 -3.141592653589793116 $75 3.141592653589793116 $55 $76 forward @7 unknown #
vertex $-1 -1 $-1 $41 $77 #
intcurve-curve $-1 -1 $-1 forward { surfintcur full nubs 3 periodic 17 
	0 3 0.103875179553446273 2 0.2077503591068925459 2 0.3116437699084918522 2 0.4155371807100911585 2 
	0.519317947152651449 2 0.6230987135952116285 2 0.7268974246326989075 2 0.8306961356701862975 2 0.9345214953731396657 2 
	1.038346855076093034 2 1.142100971498365869 2 1.245855087920638704 2 1.349778900309969387 2 1.453702712699299848 2 
	1.557547486853332996 2 1.661392261007366145 3 
	-14.96665350894047286 19.52246751141594316 -26.20822132078357214 
	-14.96665350894047286 19.8634577853151697 -26.2683471062311753 
	-14.98073116535316451 20.2386313033438654 -26.26404890279961535 
	-15.03158149845743097 20.95441597967586489 -26.10499553550404528 
	-15.06762843938084373 21.29509120235394093 -25.95029749653669171 
	-15.13605762771417851 21.85962873453436828 -25.555004060901652 
	-15.17294932697275378 22.12148726221060002 -25.28778827457026068 
	-15.2277369344807294 22.51573413969122939 -24.66960545466897514 
	-15.24498579039878265 22.64808899002074938 -24.31855988281046166 
	-15.25297738399891578 22.76828845426578951 -23.63687484650978377 
	-15.2442655931016553 22.76409289418365844 -23.26182578541713042 
	-15.20523702159285051 22.60513438650843199 -22.54595007111327121 
	-15.17557278824576628 22.45041603588341417 -22.20507808937779259 
	-15.11864211932647528 22.05488601537600957 -21.64020267898347782 
	-15.08765224214968725 21.78750987124621119 -21.37827440834023562 
	-15.04358104515876704 21.16923576940094875 -20.98409093415230586 
	-15.03121065771826892 20.8182717398586874 -20.85186020260254125 
	-15.03121065771826892 20.13670575793488737 -20.73168173085631949 
	-15.04358754539227228 19.76158880356878811 -20.73592059084406358 
	-15.08767755412683087 19.04562696564902069 -20.89497652517264825 
	-15.11867909094375761 18.70472830618354365 -21.04974798300518302 
	-15.17560850964131802 18.13992888057029162 -21.4453866708485279 
	-15.20526044356490303 17.878059649645067 -21.71275591673343186 
	-15.24427034248469148 17.48399720464298923 -22.33098235988284586 
	-15.25297635846875721 17.35183038796840904 -22.68189734733382323 
	-15.24498462050305037 17.23162875235857783 -23.3635946980561684 
	-15.2277268454489132 17.23595912697303234 -23.73884369282610507 
	-15.17291434296195973 17.39512077393140643 -24.45476301355908788 
	-15.13600734237807011 17.54989367446717452 -24.79549575908249182 
	-15.06757912532781951 17.94531081329513356 -25.35994675531340192 
	-15.031548064737283 18.21249814775327991 -25.62171526366945784 
	-14.98072276608844433 18.8305914382520605 -26.01581433770347118 
	-14.96665350894047286 19.18157704909362948 -26.14811313480996091 
	-14.96665350894047286 19.52246751141594316 -26.20822132078357214 
	0.001772782286443708036 
	
	cone -49.03029607687672353 20 -23.49999999999998224 1 0 -3.505967446184704423e-16 -9.641410477007938274e-16 0 -2.75 1 I I 0 -1 2.75 reversed I I I I 
	cone 0 21.23413567771363475 -23.53884310917128175 0 0.9848077530122081313 -0.1736481776669300814 0 2.648134709420681965 15.01831823343617245 1 I I -0 -1 15.24999999999999645 forward I I I I 
	nullbs 
	nullbs 
	I I 
	0 
	0 
	0 
	} I I #
loop $-1 -1 $-1 $-1 $78 $31 #
point $-1 -1 $-1 14.96665350894047108 19.52246751141594316 -26.20822132078357924 #
NMx_Hole_Brep_tag-NMx_Brep_Name_tag-NMx_Brep_tag-NamingMatching-attrib $-1 -1 $-1 $46 $31 43 1 425 -1 2 7 #
DXID-attrib $-1 -1 $79 $-1 $47 @10 ASM ENTITY @1 5 #
face $80 -1 $-1 $81 $82 $4 $-1 $83 reversed single #
loop $-1 -1 $-1 $-1 $84 $47 #
cone-surface $-1 -1 $-1 3.500000000000000444 0 3.500000000000002665 0 1 0 1.414213562373094923 0 1.414213562373094923 1 I I 0 1 2 forward I I I I #
coedge $-1 -1 $-1 $66 $66 $85 $86 reversed $48 $-1 #
coedge $-1 -1 $-1 $67 $67 $49 $68 forward $82 $-1 #
edge $-1 -1 $-1 $87 -3.141592653589793116 $87 3.141592653589793116 $67 $88 forward @7 unknown #
loop $-1 -1 $-1 $89 $50 $90 #
vertex $-1 -1 $-1 $51 $91 #
ellipse-curve $-1 -1 $-1 -16.99999999999999289 20 -23.49999999999999645 1 0 1.16865581539490131e-16 -9.641410477007938274e-16 0 -2.75 1 I I #
NMx_Generated_Brep_tag-NMx_Brep_Name_tag-NMx_Brep_tag-NamingMatching-attrib $-1 -1 $-1 $-1 $53 43 1 975 -1 8 0 1 #
point $-1 -1 $-1 0 6.6481347094206793 -5.481681766563837321 #
loop $-1 -1 $-1 $92 $55 $93 #
vertex $-1 -1 $-1 $56 $94 #
ellipse-curve $-1 -1 $-1 0 30 -25.08450149842008869 -0 -1 -0 0 0 15.48525583125760896 0.9848077530122080203 I I #
point $-1 -1 $-1 -14.96665350894047286 19.52246751141594672 -26.20822132078356503 #
coedge $-1 -1 $-1 $78 $78 $95 $96 reversed $59 $-1 #
NMx_blend_tag-NMx_Brep_Name_tag-NMx_Brep_tag-NamingMatching-attrib $-1 -1 $-1 $62 $47 43 1 360 -1 1 1 93 0 0 0 0 #
DXID-attrib $-1 -1 $97 $-1 $63 @10 ASM ENTITY @1 6 #
face $98 -1 $-1 $99 $100 $4 $-1 $101 forward single #
loop $-1 -1 $-1 $102 $67 $63 #
plane-surface $-1 -1 $-1 -2.487847326522834915e-15 0 -19.90243902439024026 0 1 0 0 0 10 forward_v I I I I #
coedge $-1 -1 $-1 $103 $104 $105 $106 forward $64 $-1 #
coedge $-1 -1 $-1 $85 $85 $66 $86 forward $92 $-1 #
edge $-1 -1 $-1 $107 0 $107 6.283185307179586232 $85 $108 forward @7 unknown #
vertex $-1 -1 $-1 $68 $109 #
ellipse-curve $-1 -1 $-1 0 0 0 0 1 0 3.300000000000000266 0 0 1 I I #
loop $-1 -1 $-1 $-1 $110 $90 #
face $111 -1 $-1 $112 $69 $4 $-1 $113 forward single #
point $-1 -1 $-1 -16.99999999999999289 20 -20.74999999999999645 #
loop $-1 -1 $-1 $114 $85 $93 #
face $115 -1 $-1 $-1 $74 $4 $-1 $116 forward single #
point $-1 -1 $-1 1.867586368699713376e-15 30 -40.56975732967769943 #
coedge $-1 -1 $-1 $95 $95 $78 $96 forward $117 $-1 #
edge $-1 -1 $-1 $118 0 $118 6.283185307179586232 $95 $119 forward @7 unknown #
NMx_Matched_Entity-NamingMatching-attrib $-1 -1 $120 $80 $63 43 1 467 -1 8 1 #
DXID-attrib $-1 -1 $121 $-1 $81 @10 ASM ENTITY @1 7 #
face $122 -1 $-1 $123 $124 $4 $-1 $125 forward single #
loop $-1 -1 $-1 $-1 $126 $81 #
plane-surface $-1 -1 $-1 -5.5 0 5.500000000000003553 1.009293658750142276e-16 0 1 10 0 -1.009293658750142202e-15 forward_v I I I I #
loop $-1 -1 $-1 $-1 $127 $63 #
coedge $-1 -1 $-1 $128 $84 $126 $129 forward $64 $-1 #
coedge $-1 -1 $-1 $84 $128 $130 $131 forward $64 $-1 #
coedge $-1 -1 $-1 $132 $133 $84 $106 reversed $114 $-1 #
edge $-1 -1 $-1 $134 -0.785398163397448279 $135 0.785398163397448057 $105 $136 forward @7 unknown #
vertex $-1 -1 $-1 $86 $137 #
ellipse-curve $-1 -1 $-1 0 30 0 -0 -1 -0 3.300000000000000266 0 0 1 I I #
point $-1 -1 $-1 -3.300000000000000266 0 4.041334437186266003e-16 #
coedge $-1 -1 $-1 $138 $139 $140 $141 reversed $89 $-1 #
DXID-attrib $-1 -1 $142 $-1 $90 @10 ASM ENTITY @2 17 #
face $143 -1 $-1 $144 $145 $4 $-1 $146 forward single #
plane-surface $-1 -1 $-1 -17.00000000000000355 0 -42.50000000000000711 -1 0 -1.16865581539490131e-16 -1.16865581539490131e-15 0 10 forward_v I I I I #
loop $-1 -1 $-1 $-1 $105 $93 #
DXID-attrib $-1 -1 $147 $-1 $93 @10 ASM ENTITY @2 20 #
plane-surface $-1 -1 $-1 -2.220446049250313081e-15 30 -19.90243902439024382 0 1 0 0 0 10 forward_v I I I I #
loop $-1 -1 $-1 $148 $95 $149 #
vertex $-1 -1 $-1 $96 $150 #
ellipse-curve $-1 -1 $-1 17 20 -23.50000000000000711 -1 0 3.505967446184704423e-16 -9.641410477007938274e-16 0 -2.75 1 I I #
NMx_Sweep_Generated_Brep_tag-NMx_Brep_Name_tag-NMx_Brep_tag-NamingMatching-attrib $-1 -1 $-1 $97 $63 43 1 92 -1 0 0 4 0 0 0 0 0 0 0 #
NMx_Feature_Orientation-NamingMatching-attrib $-1 -1 $151 $98 $81 43 $-1 $-1 #
DXID-attrib $-1 -1 $152 $-1 $99 @10 ASM ENTITY @1 8 #
face $153 -1 $-1 $149 $154 $4 $-1 $155 forward single #
loop $-1 -1 $-1 $-1 $156 $99 #
cone-surface $-1 -1 $-1 -3.500000000000000444 0 3.500000000000003553 0 1 0 -1.414213562373094923 0 1.414213562373094923 1 I I 0 1 2 forward I I I I #
coedge $-1 -1 $-1 $157 $158 $103 $129 reversed $100 $-1 #
coedge $-1 -1 $-1 $159 $160 $128 $161 reversed $102 $-1 #
coedge $-1 -1 $-1 $104 $103 $127 $161 forward $64 $-1 #
edge $162 -1 $-1 $135 -3 $163 -0 $126 $164 forward @7 tangent #
coedge $-1 -1 $-1 $165 $166 $104 $131 reversed $167 $-1 #
edge $-1 -1 $-1 $168 0 $134 3 $130 $169 forward @7 tangent #
coedge $-1 -1 $-1 $170 $105 $166 $171 forward $114 $-1 #
coedge $-1 -1 $-1 $105 $172 $157 $173 forward $114 $-1 #
vertex $-1 -1 $-1 $106 $174 #
vertex $175 -1 $-1 $106 $176 #
ellipse-curve $-1 -1 $-1 3.500000000000000444 30 3.500000000000002665 -0 -1 -0 1.414213562373094923 0 1.414213562373094923 1 I I #
point $-1 -1 $-1 3.300000000000000266 30 0 #
coedge $-1 -1 $-1 $177 $110 $178 $179 reversed $89 $-1 #
coedge $-1 -1 $-1 $110 $177 $180 $181 forward $89 $-1 #
coedge $-1 -1 $-1 $182 $183 $110 $141 forward $184 $-1 #
edge $-1 -1 $-1 $185 -3 $186 0 $110 $187 forward @7 unknown #
NMx_Feature_Orientation-NamingMatching-attrib $-1 -1 $188 $111 $90 43 $-1 $-1 #
DXID-attrib $-1 -1 $189 $-1 $112 @10 ASM ENTITY @2 18 #
face $190 -1 $-1 $93 $167 $4 $-1 $191 forward single #
loop $-1 -1 $-1 $-1 $192 $112 #
plane-surface $-1 -1 $-1 5.500000000000001776 0 -4.500000000000000888 9.654113257610050442e-17 0 1 10 0 -9.654113257610050442e-16 forward_v I I I I #
NMx_Matched_Entity-NamingMatching-attrib $-1 -1 $193 $115 $93 43 1 921 -1 10 1 #
loop $-1 -1 $-1 $-1 $194 $149 #
face $195 -1 $-1 $196 $117 $4 $-1 $197 forward single #
point $-1 -1 $-1 17 20 -26.25000000000000355 #
NMx_Sweep_Generated_Brep_tag-NMx_Brep_Name_tag-NMx_Brep_tag-NamingMatching-attrib $-1 -1 $-1 $121 $81 43 1 92 -1 6 0 20 0 0 0 0 0 0 0 #
NMx_blend_tag-NMx_Brep_Name_tag-NMx_Brep_tag-NamingMatching-attrib $-1 -1 $-1 $122 $99 43 1 360 -1 1 1 89 0 0 0 0 #
DXID-attrib $-1 -1 $198 $-1 $123 @10 ASM ENTITY @1 9 #
loop $-1 -1 $-1 $-1 $199 $123 #
plane-surface $-1 -1 $-1 13.00000000000000711 0 -8.5 0.7071067811865475727 0 0.7071067811865475727 7.071067811865475505 0 -7.071067811865475505 forward_v I I I I #
coedge $-1 -1 $-1 $200 $201 $172 $202 forward $124 $-1 #
coedge $-1 -1 $-1 $203 $126 $133 $173 reversed $100 $-1 #
coedge $-1 -1 $-1 $126 $203 $159 $204 forward $100 $-1 #
coedge $-1 -1 $-1 $205 $127 $158 $204 reversed $102 $-1 #
coedge $-1 -1 $-1 $127 $206 $165 $207 reversed $102 $-1 #
edge $-1 -1 $-1 $163 -0.785398163397448057 $168 0.785398163397448279 $127 $208 forward @7 unknown #
NMx_Matched_Entity-NamingMatching-attrib $-1 -1 $-1 $-1 $129 43 1 709 -1 264 0 #
vertex $209 -1 $-1 $129 $210 #
straight-curve $-1 -1 $-1 3.500000000000000444 0 5.500000000000002665 -0 -10 -0 F -3.620001000000000246 F 0.6200010000000001353 #
coedge $-1 -1 $-1 $211 $130 $160 $207 forward $167 $-1 #
coedge $-1 -1 $-1 $130 $211 $132 $171 reversed $167 $-1 #
loop $-1 -1 $-1 $-1 $130 $144 #
vertex $212 -1 $-1 $161 $213 #
straight-curve $-1 -1 $-1 5.5 0 3.500000000000002665 0 10 0 F -0.6200010000000001353 F 3.620001000000000246 #
coedge $-1 -1 $-1 $214 $132 $215 $216 forward $114 $-1 #
edge $217 -1 $-1 $134 0.2000000000000000111 $218 1.000000000000000444 $166 $219 forward @7 unknown #
coedge $-1 -1 $-1 $133 $220 $156 $202 reversed $114 $-1 #
edge $221 -1 $-1 $222 0.2000000000000000111 $135 0.9000000000000001332 $157 $223 forward @7 unknown #
point $-1 -1 $-1 5.5 30 3.500000000000002665 #
NMx_Matched_Entity-NamingMatching-attrib $-1 -1 $-1 $-1 $135 43 1 709 -1 262 1 #
point $-1 -1 $-1 3.500000000000000888 30 5.500000000000002665 #
coedge $-1 -1 $-1 $139 $138 $224 $225 reversed $89 $-1 #
coedge $-1 -1 $-1 $226 $227 $138 $179 forward $114 $-1 #
edge $228 -1 $-1 $229 0.7999999999999998224 $185 3.000000000000000888 $138 $230 forward @7 unknown #
coedge $-1 -1 $-1 $231 $232 $139 $181 reversed $102 $-1 #
edge $233 -1 $-1 $234 0.7999999999999998224 $186 3.000000000000000888 $139 $235 forward @7 unknown #
coedge $-1 -1 $-1 $236 $140 $232 $237 forward $184 $-1 #
coedge $-1 -1 $-1 $140 $236 $226 $238 forward $184 $-1 #
loop $-1 -1 $-1 $-1 $183 $196 #
vertex $-1 -1 $-1 $238 $239 #
vertex $240 -1 $-1 $237 $241 #
straight-curve $-1 -1 $-1 -17.00000000000000711 0 -12.49999999999999822 -0 -10 -0 F -5.480000999999999678 F 2.480001000000000122 #
NMx_Sweep_Generated_Brep_tag-NMx_Brep_Name_tag-NMx_Brep_tag-NamingMatching-attrib $-1 -1 $-1 $142 $90 43 1 92 -1 9 0 20 0 0 0 0 0 0 0 #
NMx_Feature_Orientation-NamingMatching-attrib $-1 -1 $242 $143 $112 43 $-1 $-1 #
DXID-attrib $-1 -1 $243 $-1 $144 @10 ASM ENTITY @2 19 #
plane-surface $-1 -1 $-1 5.5 0 5.500000000000002665 1 0 1.110223024625156047e-16 1.110223024625156146e-15 0 -10 forward_v I I I I #
coedge $-1 -1 $-1 $215 $244 $245 $246 reversed $145 $-1 #
NMx_Matched_Entity-NamingMatching-attrib $-1 -1 $247 $147 $93 43 1 222 -1 10 1 #
coedge $-1 -1 $-1 $248 $249 $250 $251 reversed $148 $-1 #
DXID-attrib $-1 -1 $252 $-1 $149 @10 ASM ENTITY @2 10 #
face $253 -1 $-1 $254 $184 $4 $-1 $255 forward single #
plane-surface $-1 -1 $-1 17.00000000000000711 0 -4.500000000000001776 1 0 -3.505967446184704423e-16 -3.505967446184704325e-15 0 -10 forward_v I I I I #
NMx_blend_tag-NMx_Brep_Name_tag-NMx_Brep_tag-NamingMatching-attrib $-1 -1 $-1 $153 $123 43 1 282 -1 1 1 71 0 0 0 0 #
coedge $-1 -1 $-1 $245 $250 $214 $256 forward $154 $-1 #
coedge $-1 -1 $-1 $257 $156 $258 $259 forward $124 $-1 #
coedge $-1 -1 $-1 $156 $257 $203 $260 forward $124 $-1 #
edge $-1 -1 $-1 $222 -0.785398163397448279 $261 0.785398163397448501 $172 $262 forward @7 unknown #
coedge $-1 -1 $-1 $158 $157 $201 $260 reversed $100 $-1 #
edge $263 -1 $-1 $264 0.2000000000000000111 $163 0.9000000000000001332 $158 $265 forward @7 unknown #
coedge $-1 -1 $-1 $266 $159 $257 $267 reversed $102 $-1 #
coedge $-1 -1 $-1 $160 $268 $244 $269 reversed $102 $-1 #
edge $270 -1 $-1 $168 0.2000000000000000111 $271 1.000000000000000444 $165 $272 forward @7 unknown #
ellipse-curve $-1 -1 $-1 3.500000000000000444 0 3.500000000000002665 0 1 0 1.414213562373094923 0 1.414213562373094923 1 I I #
NMx_Matched_Entity-NamingMatching-attrib $-1 -1 $-1 $-1 $163 43 1 709 -1 263 1 #
point $-1 -1 $-1 3.500000000000000888 0 5.500000000000002665 #
coedge $-1 -1 $-1 $166 $165 $273 $274 forward $167 $-1 #
NMx_Matched_Entity-NamingMatching-attrib $-1 -1 $275 $-1 $168 43 1 792 -1 337 1 #
point $-1 -1 $-1 5.5 0 3.500000000000002665 #
coedge $-1 -1 $-1 $276 $170 $199 $256 reversed $114 $-1 #
coedge $-1 -1 $-1 $273 $192 $170 $216 reversed $145 $-1 #
edge $277 -1 $-1 $218 0 $278 0.3500000000000005329 $215 $279 forward @7 unknown #
NMx_Sweep_Generated_Brep_tag-NMx_Brep_Name_tag-NMx_Brep_tag-NamingMatching-attrib $-1 -1 $-1 $-1 $171 43 1 92 -1 23 0 10 0 0 0 0 0 0 0 #
vertex $280 -1 $-1 $216 $281 #
straight-curve $-1 -1 $-1 5.5 30 5.500000000000002665 1.110223024625156146e-15 0 -10 I I #
coedge $-1 -1 $-1 $172 $282 $283 $284 forward $114 $-1 #
NMx_Sweep_Generated_Brep_tag-NMx_Brep_Name_tag-NMx_Brep_tag-NamingMatching-attrib $-1 -1 $-1 $-1 $173 43 1 92 -1 6 0 10 0 0 0 0 0 0 0 #
vertex $285 -1 $-1 $173 $286 #
straight-curve $-1 -1 $-1 -5.5 30 5.500000000000003553 10 0 -1.009293658750142202e-15 I I #
coedge $-1 -1 $-1 $287 $288 $177 $225 forward $289 $-1 #
edge $290 -1 $-1 $234 0 $229 3 $177 $291 forward @7 unknown #
coedge $-1 -1 $-1 $282 $178 $183 $238 reversed $114 $-1 #
coedge $-1 -1 $-1 $178 $292 $287 $293 reversed $114 $-1 #
NMx_Sweep_Generated_Brep_tag-NMx_Brep_Name_tag-NMx_Brep_tag-NamingMatching-attrib $-1 -1 $-1 $-1 $179 43 1 92 -1 9 0 10 0 0 0 0 0 0 0 #
vertex $294 -1 $-1 $293 $295 #
straight-curve $-1 -1 $-1 -17.00000000000000355 30 -42.50000000000000711 -1.16865581539490131e-15 0 10 I I #
coedge $-1 -1 $-1 $296 $180 $288 $297 reversed $102 $-1 #
coedge $-1 -1 $-1 $180 $298 $182 $237 reversed $102 $-1 #
NMx_Matched_Entity-NamingMatching-attrib $-1 -1 $299 $-1 $181 43 1 834 -1 344 0 #
vertex $300 -1 $-1 $181 $301 #
straight-curve $-1 -1 $-1 -17.00000000000000355 0 -42.50000000000000711 -1.16865581539490131e-15 0 10 F 0 F 3.800000000000001155 #
coedge $-1 -1 $-1 $183 $182 $302 $303 forward $184 $-1 #
edge $-1 -1 $-1 $186 -0.6221677349098710952 $304 0.5092031149886051544 $232 $305 forward @7 unknown #
edge $-1 -1 $-1 $306 -0.5092031149886051544 $185 0.6221677349098710952 $226 $307 forward @7 unknown #
point $-1 -1 $-1 -17.00000000000000711 30 -12.5 #
NMx_Matched_Entity-NamingMatching-attrib $-1 -1 $308 $-1 $186 43 1 830 -1 343 1 #
point $-1 -1 $-1 -17.00000000000000711 0 -12.5 #
NMx_Sweep_Generated_Brep_tag-NMx_Brep_Name_tag-NMx_Brep_tag-NamingMatching-attrib $-1 -1 $-1 $189 $112 43 1 92 -1 25 0 20 0 0 0 0 0 0 0 #
NMx_Feature_Orientation-NamingMatching-attrib $-1 -1 $309 $190 $144 43 $-1 $-1 #
coedge $-1 -1 $-1 $192 $273 $206 $269 forward $145 $-1 #
coedge $-1 -1 $-1 $310 $199 $192 $246 forward $154 $-1 #
edge $-1 -1 $-1 $278 -3 $311 0 $192 $312 forward @7 unknown #
NMx_Sweep_Generated_Brep_tag-NMx_Brep_Name_tag-NMx_Brep_tag-NamingMatching-attrib $-1 -1 $-1 $193 $93 43 1 92 -1 0 0 12 0 0 0 0 0 0 0 #
coedge $-1 -1 $-1 $313 $194 $314 $315 forward $148 $-1 #
coedge $-1 -1 $-1 $194 $313 $276 $316 reversed $148 $-1 #
coedge $-1 -1 $-1 $199 $310 $194 $251 forward $154 $-1 #
edge $-1 -1 $-1 $317 0 $318 3 $194 $319 forward @7 unknown #
NMx_Sweep_Generated_Brep_tag-NMx_Brep_Name_tag-NMx_Brep_tag-NamingMatching-attrib $-1 -1 $320 $195 $149 43 1 92 -1 7 0 20 0 0 0 0 0 0 0 #
DXID-attrib $-1 -1 $321 $-1 $196 @10 ASM ENTITY @2 11 #
face $322 -1 $-1 $323 $324 $4 $-1 $325 forward single #
plane-surface $-1 -1 $-1 -13.00000000000000711 0 -8.499999999999998224 -0.7071067811865475727 0 0.7071067811865475727 7.071067811865475505 0 7.071067811865475505 forward_v I I I I #
edge $-1 -1 $-1 $318 -0.6221677349098710952 $278 0.5092031149886049324 $214 $326 forward @7 unknown #
coedge $-1 -1 $-1 $201 $200 $205 $267 forward $124 $-1 #
coedge $-1 -1 $-1 $283 $327 $200 $259 reversed $328 $-1 #
edge $-1 -1 $-1 $261 -3 $329 0 $258 $330 forward @7 tangent #
edge $331 -1 $-1 $264 0 $222 3 $203 $332 forward @7 tangent #
vertex $-1 -1 $-1 $202 $333 #
ellipse-curve $-1 -1 $-1 -3.500000000000000444 30 3.500000000000003553 -0 -1 -0 -1.414213562373094923 0 1.414213562373094923 1 I I #
NMx_Generated_Brep_tag-NMx_Brep_Name_tag-NMx_Brep_tag-NamingMatching-attrib $-1 -1 $-1 $-1 $204 43 1 92 -1 6 0 2 #
vertex $334 -1 $-1 $204 $335 #
straight-curve $-1 -1 $-1 -5.5 0 5.500000000000003553 10 0 -1.009293658750142202e-15 F 0 F 1.100000000000000089 #
coedge $-1 -1 $-1 $298 $205 $327 $336 reversed $102 $-1 #
edge $-1 -1 $-1 $329 -0.785398163397448501 $264 0.785398163397448279 $205 $337 forward @7 unknown #
coedge $-1 -1 $-1 $206 $314 $310 $338 reversed $102 $-1 #
edge $339 -1 $-1 $271 0 $311 0.3500000000000005329 $244 $340 forward @7 unknown #
NMx_Matched_Entity-NamingMatching-attrib $-1 -1 $341 $-1 $207 43 1 800 -1 339 0 #
vertex $342 -1 $-1 $269 $343 #
straight-curve $-1 -1 $-1 5.5 0 5.500000000000002665 1.110223024625156146e-15 0 -10 F 0 F 1.000000000000000444 #
coedge $-1 -1 $-1 $244 $215 $211 $274 reversed $145 $-1 #
edge $344 -1 $-1 $271 0 $218 3 $211 $345 forward @7 unknown #
NMx_Matched_Entity-NamingMatching-attrib $-1 -1 $-1 $212 $168 43 1 800 -1 337 1 #
coedge $-1 -1 $-1 $346 $214 $249 $316 forward $114 $-1 #
NMx_Sweep_Generated_Brep_tag-NMx_Brep_Name_tag-NMx_Brep_tag-NamingMatching-attrib $-1 -1 $-1 $-1 $216 43 1 92 -1 25 0 10 0 0 0 0 0 0 0 #
vertex $-1 -1 $-1 $256 $347 #
straight-curve $-1 -1 $-1 5.500000000000001776 30 -4.500000000000000888 10 0 -9.654113257610050442e-16 I I #
NMx_Sweep_Generated_Brep_tag-NMx_Brep_Name_tag-NMx_Brep_tag-NamingMatching-attrib $-1 -1 $-1 $-1 $218 43 1 92 -1 22 0 9 0 0 0 0 0 0 0 #
point $-1 -1 $-1 5.5 30 -4.500000000000000888 #
coedge $-1 -1 $-1 $220 $226 $348 $349 forward $114 $-1 #
coedge $-1 -1 $-1 $350 $258 $220 $284 reversed $328 $-1 #
edge $351 -1 $-1 $352 0 $261 0.8000000000000002665 $283 $353 forward @7 unknown #
NMx_Matched_Entity-NamingMatching-attrib $-1 -1 $354 $-1 $222 43 1 604 -1 139 1 #
point $-1 -1 $-1 -3.500000000000000444 30 5.500000000000003553 #
coedge $-1 -1 $-1 $355 $224 $227 $293 forward $289 $-1 #
coedge $-1 -1 $-1 $224 $355 $231 $297 forward $289 $-1 #
loop $-1 -1 $-1 $-1 $287 $356 #
NMx_Matched_Entity-NamingMatching-attrib $-1 -1 $-1 $-1 $225 43 1 902 -1 346 0 #
straight-curve $-1 -1 $-1 -17.00000000000000711 0 -34.50000000000001421 0 10 0 F -2.480001000000000566 F 5.480000999999999678 #
coedge $-1 -1 $-1 $227 $346 $357 $358 forward $114 $-1 #
edge $-1 -1 $-1 $229 -0.367781758751295873 $359 0.7635890911471803211 $227 $360 forward @7 unknown #
NMx_Matched_Entity-NamingMatching-attrib $-1 -1 $361 $-1 $229 43 1 898 -1 345 1 #
point $-1 -1 $-1 -17.00000000000000355 30 -34.50000000000001421 #
coedge $-1 -1 $-1 $362 $231 $363 $364 reversed $102 $-1 #
edge $-1 -1 $-1 $365 -0.7635890911471805431 $234 0.36778175875129554 $231 $366 forward @7 unknown #
coedge $-1 -1 $-1 $232 $266 $367 $368 reversed $102 $-1 #
NMx_Generated_Brep_tag-NMx_Brep_Name_tag-NMx_Brep_tag-NamingMatching-attrib $-1 -1 $369 $233 $181 43 1 92 -1 9 0 2 #
NMx_Matched_Entity-NamingMatching-attrib $-1 -1 $370 $-1 $234 43 1 826 -1 341 1 #
point $-1 -1 $-1 -17.00000000000000355 0 -34.50000000000001421 #
coedge $-1 -1 $-1 $367 $348 $236 $303 reversed $324 $-1 #
edge $-1 -1 $-1 $304 0 $306 3 $302 $371 forward @7 unknown #
vertex $-1 -1 $-1 $368 $372 #
straight-curve $-1 -1 $-1 -12.60060975609756717 0 -8.100609756097558289 7.071067811865475505 0 7.071067811865475505 I I #
vertex $-1 -1 $-1 $238 $373 #
straight-curve $-1 -1 $-1 -12.60060975609756717 30 -8.100609756097558289 -7.071067811865475505 0 -7.071067811865475505 I I #
NMx_Matched_Entity-NamingMatching-attrib $-1 -1 $-1 $240 $186 43 1 834 -1 343 1 #
NMx_Sweep_Generated_Brep_tag-NMx_Brep_Name_tag-NMx_Brep_tag-NamingMatching-attrib $-1 -1 $-1 $243 $144 43 1 92 -1 23 0 20 0 0 0 0 0 0 0 #
coedge $-1 -1 $-1 $250 $245 $268 $338 forward $154 $-1 #
vertex $-1 -1 $-1 $338 $374 #
straight-curve $-1 -1 $-1 9.000000000000007105 0 -4.500000000000000888 -0 -10 -0 F -5.480000999999999678 F 2.480001000000000122 #
coedge $-1 -1 $-1 $249 $248 $375 $376 reversed $148 $-1 #
coedge $-1 -1 $-1 $268 $362 $248 $315 reversed $102 $-1 #
edge $377 -1 $-1 $317 0.7999999999999998224 $378 3.000000000000000888 $248 $379 forward @7 unknown #
edge $380 -1 $-1 $318 0.7999999999999998224 $381 3.000000000000000888 $249 $382 forward @7 unknown #
vertex $383 -1 $-1 $315 $384 #
vertex $385 -1 $-1 $256 $386 #
straight-curve $-1 -1 $-1 17.00000000000000711 0 -12.5 0 10 0 F -2.480001000000000122 F 5.480000999999999678 #
NMx_Feature_Orientation-NamingMatching-attrib $-1 -1 $387 $252 $149 43 $-1 $-1 #
NMx_blend_tag-NMx_Brep_Name_tag-NMx_Brep_tag-NamingMatching-attrib $-1 -1 $-1 $253 $196 43 1 282 -1 1 1 67 0 0 0 0 #
DXID-attrib $-1 -1 $388 $-1 $254 @10 ASM ENTITY @2 12 #
face $389 -1 $-1 $390 $391 $4 $-1 $392 forward single #
loop $-1 -1 $-1 $-1 $302 $254 #
plane-surface $-1 -1 $-1 -17.00000000000000711 0 -4.499999999999997335 1.930822651522010088e-16 0 1 10 0 -1.930822651522010088e-15 forward_v I I I I #
straight-curve $-1 -1 $-1 12.60060975609756539 30 -8.100609756097560066 -7.071067811865475505 0 7.071067811865475505 I I #
coedge $-1 -1 $-1 $258 $350 $266 $336 forward $328 $-1 #
loop $-1 -1 $-1 $-1 $258 $393 #
vertex $-1 -1 $-1 $267 $394 #
straight-curve $-1 -1 $-1 -5.5 0 3.500000000000003553 -0 -10 -0 F -3.620001000000000246 F 0.6200010000000001353 #
NMx_Matched_Entity-NamingMatching-attrib $-1 -1 $-1 $-1 $260 43 1 608 -1 140 0 #
straight-curve $-1 -1 $-1 -3.500000000000000444 0 5.500000000000003553 0 10 0 F -0.6200010000000001353 F 3.620001000000000246 #
point $-1 -1 $-1 -5.5 30 3.500000000000003109 #
NMx_Matched_Entity-NamingMatching-attrib $-1 -1 $395 $-1 $264 43 1 600 -1 138 1 #
point $-1 -1 $-1 -3.500000000000000444 0 5.500000000000003553 #
edge $396 -1 $-1 $397 0 $329 0.8000000000000002665 $327 $398 forward @7 unknown #
ellipse-curve $-1 -1 $-1 -3.500000000000000444 0 3.500000000000003553 0 1 0 -1.414213562373094923 0 1.414213562373094923 1 I I #
edge $-1 -1 $-1 $311 -0.5092031149886047103 $317 0.6221677349098713172 $268 $399 forward @7 unknown #
NMx_Generated_Brep_tag-NMx_Brep_Name_tag-NMx_Brep_tag-NamingMatching-attrib $-1 -1 $-1 $-1 $269 43 1 92 -1 25 0 2 #
straight-curve $-1 -1 $-1 5.500000000000001776 0 -4.500000000000000888 10 0 -9.654113257610050442e-16 F 0 F 1.150000000000000799 #
NMx_Generated_Brep_tag-NMx_Brep_Name_tag-NMx_Brep_tag-NamingMatching-attrib $-1 -1 $-1 $270 $207 43 1 92 -1 23 0 2 #
NMx_Matched_Entity-NamingMatching-attrib $-1 -1 $400 $-1 $271 43 1 800 -1 338 1 #
point $-1 -1 $-1 5.500000000000001776 0 -4.500000000000000888 #
NMx_Sweep_Generated_Brep_tag-NMx_Brep_Name_tag-NMx_Brep_tag-NamingMatching-attrib $-1 -1 $-1 $-1 $274 43 1 92 -1 22 0 18 0 0 0 0 0 0 0 #
straight-curve $-1 -1 $-1 5.500000000000001776 0 -4.500000000000000888 0 10 0 I I #
coedge $-1 -1 $-1 $292 $276 $401 $402 reversed $114 $-1 #
point $-1 -1 $-1 9.000000000000007105 30 -4.500000000000000888 #
coedge $-1 -1 $-1 $302 $403 $282 $349 reversed $324 $-1 #
edge $404 -1 $-1 $306 0.8000000000000001554 $352 1.150000000000000799 $348 $405 forward @7 unknown #
coedge $-1 -1 $-1 $327 $283 $403 $406 reversed $328 $-1 #
NMx_Sweep_Generated_Brep_tag-NMx_Brep_Name_tag-NMx_Brep_tag-NamingMatching-attrib $-1 -1 $-1 $-1 $284 43 1 92 -1 20 0 10 0 0 0 0 0 0 0 #
vertex $407 -1 $-1 $406 $408 #
straight-curve $-1 -1 $-1 -5.500000000000001776 30 -4.5 1.110223024625156146e-15 0 10 I I #
NMx_Matched_Entity-NamingMatching-attrib $-1 -1 $-1 $285 $222 43 1 608 -1 139 1 #
coedge $-1 -1 $-1 $288 $287 $409 $410 forward $289 $-1 #
face $411 -1 $-1 $393 $289 $4 $-1 $412 forward single #
coedge $-1 -1 $-1 $413 $409 $292 $358 reversed $414 $-1 #
edge $415 -1 $-1 $416 0.7999999999999999334 $359 2.599999999999999645 $357 $417 forward @7 unknown #
vertex $-1 -1 $-1 $410 $418 #
straight-curve $-1 -1 $-1 -14.39939024390244349 30 -37.10060975609757605 7.07106781186547817 0 -7.071067811865473729 I I #
NMx_Matched_Entity-NamingMatching-attrib $-1 -1 $-1 $294 $229 43 1 902 -1 345 1 #
coedge $-1 -1 $-1 $314 $296 $419 $420 reversed $102 $-1 #
coedge $-1 -1 $-1 $409 $413 $296 $364 forward $414 $-1 #
edge $421 -1 $-1 $422 0.7999999999999999334 $365 2.599999999999999645 $363 $423 forward @7 unknown #
vertex $-1 -1 $-1 $297 $424 #
straight-curve $-1 -1 $-1 -14.39939024390244349 0 -37.10060975609756895 -7.07106781186547817 0 7.071067811865473729 I I #
coedge $-1 -1 $-1 $403 $302 $298 $368 forward $324 $-1 #
edge $425 -1 $-1 $304 0.8000000000000001554 $397 1.150000000000000799 $367 $426 forward @7 unknown #
NMx_Matched_Entity-NamingMatching-attrib $-1 -1 $-1 $299 $181 43 1 144 -1 9 0 #
NMx_Matched_Entity-NamingMatching-attrib $-1 -1 $427 $300 $234 43 1 834 -1 341 1 #
straight-curve $-1 -1 $-1 -9.000000000000007105 0 -4.499999999999998224 0 10 0 F -2.480001000000000122 F 5.480000999999999678 #
point $-1 -1 $-1 -9.000000000000007105 0 -4.499999999999999112 #
point $-1 -1 $-1 -9.000000000000007105 30 -4.499999999999999112 #
point $-1 -1 $-1 9.000000000000007105 0 -4.500000000000000888 #
coedge $-1 -1 $-1 $419 $401 $313 $376 forward $391 $-1 #
edge $428 -1 $-1 $381 -3 $378 -0 $313 $429 forward @7 unknown #
NMx_Matched_Entity-NamingMatching-attrib $-1 -1 $430 $-1 $315 43 1 405 -1 108 0 #
vertex $431 -1 $-1 $420 $432 #
straight-curve $-1 -1 $-1 17.00000000000000711 0 -4.500000000000001776 -3.505967446184704325e-15 0 -10 F 0 F 3.800000000000000711 #
NMx_Matched_Entity-NamingMatching-attrib $-1 -1 $433 $-1 $316 43 1 451 -1 112 0 #
vertex $434 -1 $-1 $376 $435 #
straight-curve $-1 -1 $-1 17.00000000000000711 30 -4.500000000000001776 -3.505967446184704325e-15 0 -10 I I #
NMx_Matched_Entity-NamingMatching-attrib $-1 -1 $436 $-1 $317 43 1 397 -1 105 1 #
point $-1 -1 $-1 17.00000000000000711 0 -12.5 #
NMx_Matched_Entity-NamingMatching-attrib $-1 -1 $437 $-1 $318 43 1 447 -1 111 1 #
point $-1 -1 $-1 17.00000000000000711 30 -12.5 #
NMx_Matched_Entity-NamingMatching-attrib $-1 -1 $-1 $320 $149 43 1 386 -1 16 1 #
NMx_Sweep_Generated_Brep_tag-NMx_Brep_Name_tag-NMx_Brep_tag-NamingMatching-attrib $-1 -1 $438 $322 $254 43 1 92 -1 18 0 20 0 0 0 0 0 0 0 #
DXID-attrib $-1 -1 $439 $-1 $323 @10 ASM ENTITY @2 13 #
face $440 -1 $-1 $356 $414 $4 $-1 $441 forward single #
loop $-1 -1 $-1 $-1 $401 $323 #
plane-surface $-1 -1 $-1 12.99999999999999645 0 -38.50000000000000711 0.7071067811865473507 0 -0.7071067811865476838 -7.071067811865477282 0 -7.071067811865473729 forward_v I I I I #
face $442 -1 $-1 $90 $328 $4 $-1 $443 forward single #
point $-1 -1 $-1 -5.5 0 3.500000000000003109 #
NMx_Matched_Entity-NamingMatching-attrib $-1 -1 $-1 $334 $264 43 1 608 -1 138 1 #
NMx_Generated_Brep_tag-NMx_Brep_Name_tag-NMx_Brep_tag-NamingMatching-attrib $-1 -1 $-1 $-1 $336 43 1 92 -1 20 0 2 #
vertex $444 -1 $-1 $336 $445 #
straight-curve $-1 -1 $-1 -5.500000000000001776 0 -4.5 1.110223024625156146e-15 0 10 F 0 F 1.000000000000000444 #
straight-curve $-1 -1 $-1 12.60060975609756184 0 -8.100609756097558289 7.071067811865475505 0 -7.071067811865475505 I I #
NMx_Matched_Entity-NamingMatching-attrib $-1 -1 $446 $342 $271 43 1 796 -1 338 1 #
coedge $-1 -1 $-1 $375 $447 $346 $402 forward $391 $-1 #
edge $-1 -1 $-1 $416 -0.7635890911471803211 $381 0.3677817587512957065 $346 $448 forward @7 unknown #
coedge $-1 -1 $-1 $348 $367 $350 $406 forward $324 $-1 #
NMx_Sweep_Generated_Brep_tag-NMx_Brep_Name_tag-NMx_Brep_tag-NamingMatching-attrib $-1 -1 $-1 $-1 $349 43 1 92 -1 18 0 10 0 0 0 0 0 0 0 #
straight-curve $-1 -1 $-1 -17.00000000000000711 30 -4.499999999999997335 10 0 -1.930822651522010088e-15 I I #
edge $449 -1 $-1 $397 0 $352 3 $403 $450 forward @7 unknown #
NMx_Sweep_Generated_Brep_tag-NMx_Brep_Name_tag-NMx_Brep_tag-NamingMatching-attrib $-1 -1 $-1 $-1 $352 43 1 92 -1 17 0 9 0 0 0 0 0 0 0 #
point $-1 -1 $-1 -5.500000000000001776 30 -4.500000000000000888 #
coedge $-1 -1 $-1 $357 $363 $355 $410 reversed $414 $-1 #
edge $-1 -1 $-1 $359 -3 $365 -0 $409 $451 forward @7 unknown #
DXID-attrib $-1 -1 $452 $-1 $356 @10 ASM ENTITY @2 15 #
plane-surface $-1 -1 $-1 -13.00000000000000533 0 -38.50000000000000711 -0.7071067811865473507 0 -0.7071067811865477948 -7.07106781186547817 0 7.071067811865473729 forward_v I I I I #
coedge $-1 -1 $-1 $363 $357 $447 $453 reversed $414 $-1 #
loop $-1 -1 $-1 $-1 $413 $390 #
NMx_Sweep_Generated_Brep_tag-NMx_Brep_Name_tag-NMx_Brep_tag-NamingMatching-attrib $-1 -1 $-1 $-1 $358 43 1 92 -1 8 0 10 0 0 0 0 0 0 0 #
vertex $-1 -1 $-1 $402 $454 #
straight-curve $-1 -1 $-1 16.99999999999999645 30 -42.50000000000000711 -10 0 0 I I #
point $-1 -1 $-1 -9.000000000000001776 30 -42.50000000000000711 #
coedge $-1 -1 $-1 $447 $375 $362 $420 forward $391 $-1 #
edge $-1 -1 $-1 $378 -0.3677817587512954844 $422 0.7635890911471805431 $362 $455 forward @7 unknown #
NMx_Generated_Brep_tag-NMx_Brep_Name_tag-NMx_Brep_tag-NamingMatching-attrib $-1 -1 $-1 $-1 $364 43 1 92 -1 8 0 2 #
vertex $-1 -1 $-1 $364 $456 #
straight-curve $-1 -1 $-1 16.99999999999999645 0 -42.50000000000000711 -10 0 0 F 0 F 3.399999999999999911 #
point $-1 -1 $-1 -9.000000000000001776 0 -42.50000000000000711 #
NMx_Generated_Brep_tag-NMx_Brep_Name_tag-NMx_Brep_tag-NamingMatching-attrib $-1 -1 $-1 $-1 $368 43 1 92 -1 18 0 2 #
straight-curve $-1 -1 $-1 -17.00000000000000711 0 -4.499999999999997335 10 0 -1.930822651522010088e-15 F 0 F 1.150000000000000799 #
NMx_Matched_Entity-NamingMatching-attrib $-1 -1 $-1 $370 $234 43 1 902 -1 341 1 #
NMx_Matched_Entity-NamingMatching-attrib $-1 -1 $-1 $-1 $376 43 1 416 -1 110 0 #
straight-curve $-1 -1 $-1 16.99999999999999645 0 -34.50000000000001421 -0 -10 -0 F -5.480001000000000566 F 2.48000100000000101 #
NMx_Generated_Brep_tag-NMx_Brep_Name_tag-NMx_Brep_tag-NamingMatching-attrib $-1 -1 $-1 $377 $315 43 1 92 -1 7 0 2 #
NMx_Matched_Entity-NamingMatching-attrib $-1 -1 $457 $-1 $378 43 1 401 -1 107 1 #
point $-1 -1 $-1 16.99999999999999645 0 -34.50000000000001421 #
NMx_Sweep_Generated_Brep_tag-NMx_Brep_Name_tag-NMx_Brep_tag-NamingMatching-attrib $-1 -1 $-1 $380 $316 43 1 92 -1 7 0 10 0 0 0 0 0 0 0 #
NMx_Matched_Entity-NamingMatching-attrib $-1 -1 $458 $-1 $381 43 1 412 -1 109 1 #
point $-1 -1 $-1 16.99999999999999645 30 -34.50000000000001421 #
NMx_Matched_Entity-NamingMatching-attrib $-1 -1 $-1 $383 $317 43 1 405 -1 105 1 #
NMx_Matched_Entity-NamingMatching-attrib $-1 -1 $-1 $385 $318 43 1 451 -1 111 1 #
NMx_Feature_Orientation-NamingMatching-attrib $-1 -1 $-1 $388 $254 43 $-1 $-1 #
NMx_blend_tag-NMx_Brep_Name_tag-NMx_Brep_tag-NamingMatching-attrib $-1 -1 $-1 $389 $323 43 1 282 -1 1 1 17 0 0 0 0 #
DXID-attrib $-1 -1 $459 $-1 $390 @10 ASM ENTITY @2 14 #
plane-surface $-1 -1 $-1 16.99999999999999645 0 -42.50000000000000711 0 0 -1 -10 0 0 forward_v I I I I #
DXID-attrib $-1 -1 $460 $-1 $393 @10 ASM ENTITY @2 16 #
plane-surface $-1 -1 $-1 -5.500000000000001776 0 -4.5 -1 0 1.110223024625156047e-16 1.110223024625156146e-15 0 10 forward_v I I I I #
NMx_Generated_Brep_tag-NMx_Brep_Name_tag-NMx_Brep_tag-NamingMatching-attrib $-1 -1 $-1 $-1 $397 43 1 92 -1 17 0 1 #
point $-1 -1 $-1 -5.500000000000001776 0 -4.5 #
NMx_Generated_Brep_tag-NMx_Brep_Name_tag-NMx_Brep_tag-NamingMatching-attrib $-1 -1 $-1 $400 $271 43 1 92 -1 22 0 1 #
coedge $-1 -1 $-1 $401 $419 $413 $453 forward $391 $-1 #
straight-curve $-1 -1 $-1 14.39939024390243461 30 -37.10060975609756895 7.071067811865477282 0 7.071067811865473729 I I #
NMx_Sweep_Generated_Brep_tag-NMx_Brep_Name_tag-NMx_Brep_tag-NamingMatching-attrib $-1 -1 $-1 $-1 $406 43 1 92 -1 17 0 18 0 0 0 0 0 0 0 #
straight-curve $-1 -1 $-1 -5.500000000000001776 0 -4.5 0 10 0 I I #
straight-curve $-1 -1 $-1 -9.000000000000001776 0 -42.50000000000000711 -0 -10 -0 F -5.480000999999999678 F 2.480001000000000566 #
NMx_blend_tag-NMx_Brep_Name_tag-NMx_Brep_tag-NamingMatching-attrib $-1 -1 $-1 $411 $356 43 1 282 -1 1 1 13 0 0 0 0 #
edge $-1 -1 $-1 $422 0 $416 3 $413 $461 forward @7 unknown #
point $-1 -1 $-1 8.999999999999996447 30 -42.50000000000000711 #
straight-curve $-1 -1 $-1 14.39939024390243638 0 -37.10060975609756895 -7.071067811865477282 0 -7.071067811865473729 I I #
point $-1 -1 $-1 8.999999999999996447 0 -42.50000000000000711 #
NMx_Matched_Entity-NamingMatching-attrib $-1 -1 $462 $431 $378 43 1 405 -1 107 1 #
NMx_Matched_Entity-NamingMatching-attrib $-1 -1 $463 $434 $381 43 1 416 -1 109 1 #
NMx_Feature_Orientation-NamingMatching-attrib $-1 -1 $464 $440 $390 43 $-1 $-1 #
NMx_Feature_Orientation-NamingMatching-attrib $-1 -1 $465 $442 $393 43 $-1 $-1 #
straight-curve $-1 -1 $-1 8.999999999999996447 0 -42.50000000000000711 0 10 0 F -2.48000100000000101 F 5.480001000000000566 #
NMx_Matched_Entity-NamingMatching-attrib $-1 -1 $-1 $457 $378 43 1 416 -1 107 1 #
NMx_Matched_Entity-NamingMatching-attrib $-1 -1 $-1 $458 $381 43 1 451 -1 109 1 #
NMx_Sweep_Generated_Brep_tag-NMx_Brep_Name_tag-NMx_Brep_tag-NamingMatching-attrib $-1 -1 $-1 $459 $390 43 1 92 -1 8 0 20 0 0 0 0 0 0 0 #
NMx_Sweep_Generated_Brep_tag-NMx_Brep_Name_tag-NMx_Brep_tag-NamingMatching-attrib $-1 -1 $-1 $460 $393 43 1 92 -1 20 0 20 0 0 0 0 0 0 0 #
End-of-ACIS-data 