700 0 1 0           
30 Autodesk Translation Framework 21 ASM 228.6.0.65535 OSX 24 Tue Feb 14 12:07:08 2023 
1 9.999999999999999547e-07 1.000000000000000036e-10 
body $1 -1 $-1 $2 $-1 $3 #
rgb_color-st-attrib $-1 -1 $-1 $-1 $0 0.7490196078431372584 0.7490196078431372584 0.7490196078431372584 #
lump $-1 -1 $-1 $-1 $4 $0 #
transform $-1 -1 1 0 0 0 1 0 0 0 1 0 0 0 1 no_rotate no_reflect no_shear #
shell $-1 -1 $-1 $-1 $-1 $5 $-1 $2 #
face $6 -1 $-1 $7 $8 $4 $-1 $9 reversed single #
DXID-attrib $-1 -1 $10 $-1 $5 @10 ASM ENTITY @1 0 #
face $11 -1 $-1 $12 $13 $4 $-1 $14 reversed single #
loop $-1 -1 $-1 $15 $16 $5 #
cone-surface $-1 -1 $-1 -1.880940220886350024e-28 337.5627119113716503 157.0000000000002842 0 1 0 -2.75 0 0 1 I I 0 1 2.75 forward I I I I #
NMx_Hole_Brep_tag-NMx_Brep_Name_tag-NMx_Brep_tag-NamingMatching-attrib $-1 -1 $-1 $6 $5 43 1 178 -1 2 7 #
DXID-attrib $-1 -1 $17 $-1 $7 @10 ASM ENTITY @1 1 #
face $18 -1 $-1 $19 $20 $4 $-1 $21 reversed single #
loop $-1 -1 $-1 $22 $23 $7 #
cone-surface $-1 -1 $-1 0.176052416365664044 337.5620512760838778 -158.7221314188033716 0 1 0 -3.300000000000000266 0 0 1 I I 0 1 3.300000000000000266 forward I I I I #
loop $-1 -1 $-1 $-1 $24 $5 #
coedge $-1 -1 $-1 $25 $25 $26 $27 reversed $8 $-1 #
NMx_Hole_Brep_tag-NMx_Brep_Name_tag-NMx_Brep_tag-NamingMatching-attrib $-1 -1 $-1 $11 $7 43 1 126 -1 15 7 #
DXID-attrib $-1 -1 $28 $-1 $12 @10 ASM ENTITY @1 2 #
face $29 -1 $-1 $30 $31 $4 $-1 $32 forward single #
loop $-1 -1 $-1 $-1 $33 $12 #
plane-surface $-1 -1 $-1 -1.139945760671336101e-15 -2.467162276944792422e-16 -175 0 0 1 10 0 0 forward_v I I I I #
loop $-1 -1 $-1 $-1 $34 $7 #
coedge $-1 -1 $-1 $35 $35 $36 $37 reversed $13 $-1 #
coedge $-1 -1 $-1 $24 $24 $38 $39 reversed $15 $-1 #
coedge $-1 -1 $-1 $16 $16 $40 $41 reversed $8 $-1 #
coedge $-1 -1 $-1 $40 $40 $16 $27 forward $42 $-1 #
edge $-1 -1 $-1 $43 0.4153670213094491914 $44 1.246101063928347408 $26 $45 forward @7 unknown #
NMx_Sweep_Generated_Brep_tag-NMx_Brep_Name_tag-NMx_Brep_tag-NamingMatching-attrib $-1 -1 $-1 $18 $12 43 1 29 -1 0 0 4108 0 0 0 0 0 0 0 #
DXID-attrib $-1 -1 $46 $-1 $19 @10 ASM ENTITY @1 3 #
face $47 -1 $-1 $-1 $48 $4 $-1 $49 forward single #
loop $-1 -1 $-1 $42 $38 $19 #
cone-surface $-1 -1 $-1 0 0 0 0 0 1 -15 0 0 1 I I 0 1 15 forward I I I I #
coedge $-1 -1 $-1 $33 $33 $50 $51 forward $20 $-1 #
coedge $-1 -1 $-1 $34 $34 $52 $53 reversed $22 $-1 #
coedge $-1 -1 $-1 $23 $23 $54 $55 reversed $13 $-1 #
coedge $-1 -1 $-1 $54 $54 $23 $37 forward $56 $-1 #
edge $-1 -1 $-1 $57 0.4812571302368246484 $58 1.514766313913922691 $36 $59 forward @7 unknown #
coedge $-1 -1 $-1 $38 $38 $24 $39 forward $31 $-1 #
edge $-1 -1 $-1 $60 0 $60 1.661468085237796544 $38 $61 forward @7 unknown #
coedge $-1 -1 $-1 $26 $26 $25 $41 forward $42 $-1 #
edge $-1 -1 $-1 $44 1.246101063928347408 $43 2.07683510654724568 $40 $62 forward @7 unknown #
loop $-1 -1 $-1 $63 $26 $19 #
vertex $-1 -1 $-1 $27 $64 #
vertex $-1 -1 $-1 $27 $65 #
intcurve-curve $-1 -1 $-1 forward { surfintcur full nubs 3 open 9 
	0.4153670213094491914 3 0.5192067349269831045 2 0.623046448544517073 2 0.7268902455817077835 2 0.8307340426188984939 2 
	0.9345778396560890933 2 1.038421636693279693 2 1.142261350310813661 2 1.246101063928347408 3 
	-1.734723475976807094e-16 -15 159.7500000000002842 
	0.3461323787251128214 -15 159.7500000000002842 
	0.714806268223541097 -14.9868045310097191 159.6806653639776812 
	1.392123201511366926 -14.93911814832570784 159.3997724330599794 
	1.700830316802086184 -14.90528723873233652 159.1882569797242297 
	2.188266563569774448 -14.84156008086062961 158.7008207329565437 
	2.399774503611506571 -14.80747746916738095 158.3921177105631557 
	2.680661983459746267 -14.75921265842106855 157.7148149178893561 
	2.75 -14.74576210305862745 157.3461459901242563 
	2.75 -14.74576210305862745 156.6538540098763406 
	2.680661983459746711 -14.75921265842106855 156.2851850821112407 
	2.399774503611507459 -14.80747746916738095 155.6078822894374412 
	2.188266563569774892 -14.84156008086062961 155.2991792670440532 
	1.700830316802086406 -14.90528723873233474 154.8117430202763671 
	1.392123201511366926 -14.93911814832570784 154.6002275669406174 
	0.7148062682235409859 -14.9868045310097191 154.3193346360228873 
	0.3461323787251131545 -15 154.2500000000002842 
	6.938893903907228378e-16 -15 154.2500000000002842 
	0.001770310393362871122 
	
	cone -1.880940220886350024e-28 337.5627119113716503 157.0000000000002842 0 1 0 -2.75 0 0 1 I I 0 1 2.75 forward I I I I 
	cone 0 0 0 0 0 1 -15 0 0 1 I I 0 1 15 forward I I I I 
	nullbs 
	nullbs 
	I I 
	0 
	0 
	0 
	} I I #
NMx_Feature_Orientation-NamingMatching-attrib $-1 -1 $66 $29 $19 43 $-1 $-1 #
DXID-attrib $-1 -1 $67 $-1 $30 @10 ASM ENTITY @1 4 #
loop $-1 -1 $-1 $-1 $68 $30 #
plane-surface $-1 -1 $-1 -1.139945760671336101e-15 -2.467162276944792422e-16 175 0 0 1 10 0 0 forward_v I I I I #
coedge $-1 -1 $-1 $50 $50 $33 $51 reversed $69 $-1 #
edge $70 -1 $-1 $71 -3.141592653589793116 $71 3.141592653589793116 $50 $72 forward @7 unknown #
coedge $-1 -1 $-1 $52 $52 $34 $53 forward $63 $-1 #
edge $-1 -1 $-1 $73 0 $73 1.99602344415074695 $52 $74 forward @7 unknown #
coedge $-1 -1 $-1 $36 $36 $35 $55 forward $56 $-1 #
edge $-1 -1 $-1 $58 1.514766313913922691 $57 2.47728057438757121 $54 $75 forward @7 unknown #
loop $-1 -1 $-1 $69 $36 $19 #
vertex $-1 -1 $-1 $37 $76 #
vertex $-1 -1 $-1 $37 $77 #
intcurve-curve $-1 -1 $-1 forward { surfintcur full nubs 3 open 11 
	0.4812571302368246484 3 0.4987205824704776802 2 0.6235988140422810133 2 0.7484770456140842354 2 0.87324438384472991 2 
	0.9980117220753754737 2 1.122779060306019261 2 1.247546398536663048 2 1.372424630108466603 2 1.497302861680270158 2 
	1.514766313913922691 3 
	0 -15 -155.4268308943152306 
	0.05910146294192700211 -15 -155.4236733809763678 
	0.1178449184667948735 -14.99965003441048772 -155.4221314188033602 
	0.5922845166729985289 -14.99408123499193479 -155.4221314188033602 
	1.035088304209182297 -14.96981244095021424 -155.5056610725467294 
	1.847868539419885492 -14.89134225604320605 -155.8431290107172345 
	2.217968768571312754 -14.83807381671757497 -156.096985446293246 
	2.802040683067459792 -14.73893592353015869 -156.6813726983862409 
	3.055600761835037371 -14.68649308258191155 -157.0513271749342721 
	3.392645540588575148 -14.61231439525383813 -157.8636948316129178 
	3.47605241636566431 -14.59167775133066769 -158.3062402913678852 
	3.47605241636566431 -14.59167775133066769 -159.138022546238858 
	3.392645540588581365 -14.61231439525383635 -159.5805680059938254 
	3.055600761835037371 -14.68649308258191155 -160.3929356626724712 
	2.802040683067457572 -14.73893592353015869 -160.7628901392204739 
	2.217968768571318972 -14.83807381671757497 -161.3472773913134972 
	1.847868539419889711 -14.89134225604320783 -161.6011338268894804 
	1.035088304209192511 -14.96981244095021601 -161.9386017650599285 
	0.5922845166730000832 -14.99408123499193479 -162.0221314188033546 
	0.1178449184667973298 -14.99965003441049305 -162.0221314188033546 
	0.05910146294192532984 -15 -162.0205894566304039 
	0 -15 -162.0174319432915411 
	0.001960191644210618027 
	
	cone 0.176052416365664044 337.5620512760838778 -158.7221314188033716 0 1 0 -3.300000000000000266 0 0 1 I I 0 1 3.300000000000000266 forward I I I I 
	cone 0 0 0 0 0 1 -15 0 0 1 I I 0 1 15 forward I I I I 
	nullbs 
	nullbs 
	I I 
	0 
	0 
	0 
	} I I #
vertex $-1 -1 $-1 $39 $78 #
intcurve-curve $-1 -1 $-1 forward { surfintcur full nubs 3 periodic 17 
	0 3 0.1038437970371906965 2 0.2076875940743813931 2 0.3115273076919152229 2 0.4153670213094490249 2 
	0.5192067349269828824 2 0.623046448544516851 2 0.7268902455817074504 2 0.8307340426188980498 2 0.9345778396560887602 2 
	1.038421636693279471 2 1.142261350310813439 2 1.246101063928347408 2 1.349940777545881154 2 1.453780491163415123 2 
	1.557624288200605722 2 1.661468085237796544 3 
	-2.75 14.74576210305862745 157.0000000000002842 
	-2.75 14.74576210305862745 156.6538540098763406 
	-2.680661983459746711 14.75921265842106855 156.2851850821112407 
	-2.399774503611507459 14.80747746916738095 155.6078822894374412 
	-2.188266563569772227 14.84156008086062961 155.2991792670440532 
	-1.700830316802083964 14.90528723873233652 154.8117430202763671 
	-1.392123201511353825 14.93911814832571139 154.6002275669406174 
	-0.7148062682235276633 14.9868045310097191 154.3193346360228873 
	-0.3461323787251121553 15 154.2500000000002842 
	0.3461323787251133766 15 154.2500000000002842 
	0.7148062682235349907 14.9868045310097191 154.3193346360228873 
	1.392123201511361597 14.93911814832570961 154.6002275669406174 
	1.700830316802086406 14.90528723873233119 154.8117430202763671 
	2.188266563569774892 14.84156008086062961 155.2991792670440532 
	2.399774503611507459 14.80747746916738095 155.6078822894374412 
	2.680661983459746711 14.75921265842106855 156.2851850821112407 
	2.75 14.74576210305862745 156.6538540098763406 
	2.75 14.74576210305862745 157.3461459901242563 
	2.680661983459746267 14.75921265842106855 157.7148149178893561 
	2.399774503611506571 14.80747746916738095 158.3921177105631557 
	2.188266563569774448 14.84156008086062961 158.7008207329565437 
	1.700830316802086184 14.90528723873233652 159.1882569797242297 
	1.392123201511367148 14.93911814832570784 159.3997724330599794 
	0.714806268223541208 14.9868045310097191 159.6806653639776812 
	0.3461323787251129325 15 159.7500000000002842 
	-0.3461323787251127104 15 159.7500000000002842 
	-0.7148062682235406529 14.9868045310097191 159.6806653639776812 
	-1.392123201511366259 14.93911814832570784 159.3997724330599794 
	-1.700830316802085518 14.90528723873233652 159.1882569797242297 
	-2.188266563569774004 14.84156008086062961 158.7008207329565437 
	-2.399774503611506571 14.80747746916738095 158.3921177105631557 
	-2.680661983459746267 14.75921265842106855 157.7148149178893561 
	-2.75 14.74576210305862745 157.3461459901242563 
	-2.75 14.74576210305862745 157.0000000000002842 
	0.001770310393362871122 
	
	cone -1.880940220886350024e-28 337.5627119113716503 157.0000000000002842 0 1 0 -2.75 0 0 1 I I 0 1 2.75 forward I I I I 
	cone 0 0 0 0 0 1 -15 0 0 1 I I 0 1 15 forward I I I I 
	nullbs 
	nullbs 
	I I 
	0 
	0 
	0 
	} I I #
intcurve-curve $-1 -1 $-1 forward { surfintcur full nubs 3 open 9 
	1.246101063928347408 3 1.349940777545881154 2 1.453780491163415123 2 1.557624288200605722 2 1.661468085237796544 3 
	1.765311882274987365 2 1.869155679312177964 2 1.972995392929711933 2 2.07683510654724568 3 
	6.938893903907228378e-16 -15 154.2500000000002842 
	-0.3461323787251118222 -15 154.2500000000002842 
	-0.7148062682235395426 -14.98680453100972088 154.3193346360228873 
	-1.392123201511364927 -14.93911814832570961 154.6002275669406174 
	-1.700830316802083964 -14.90528723873233652 154.8117430202763671 
	-2.188266563569772227 -14.84156008086062961 155.2991792670440532 
	-2.399774503611507459 -14.80747746916738095 155.6078822894374412 
	-2.680661983459746711 -14.75921265842106855 156.2851850821112407 
	-2.75 -14.74576210305862745 156.6538540098763406 
	-2.75 -14.74576210305862745 157.0000000000002842 
	-2.75 -14.74576210305862745 157.3461459901242563 
	-2.680661983459746267 -14.75921265842106855 157.7148149178893561 
	-2.399774503611506571 -14.80747746916738095 158.3921177105631557 
	-2.188266563569774004 -14.84156008086062961 158.7008207329565437 
	-1.700830316802086184 -14.90528723873233652 159.1882569797242297 
	-1.392123201511367148 -14.93911814832570784 159.3997724330599794 
	-0.71480626822354143 -14.9868045310097191 159.6806653639776812 
	-0.3461323787251131545 -15 159.7500000000002842 
	-1.734723475976807094e-16 -15 159.7500000000002842 
	0.001770310393362871122 
	
	cone -1.880940220886350024e-28 337.5627119113716503 157.0000000000002842 0 1 0 -2.75 0 0 1 I I 0 1 2.75 forward I I I I 
	cone 0 0 0 0 0 1 -15 0 0 1 I I 0 1 15 forward I I I I 
	nullbs 
	nullbs 
	I I 
	0 
	0 
	0 
	} I I #
loop $-1 -1 $-1 $56 $52 $19 #
point $-1 -1 $-1 -8.407790785948902426e-44 -15 159.7500000000002842 #
point $-1 -1 $-1 -8.407790785948902426e-44 -15 154.2500000000002842 #
NMx_Sweep_Generated_Brep_tag-NMx_Brep_Name_tag-NMx_Brep_tag-NamingMatching-attrib $-1 -1 $-1 $46 $19 43 1 29 -1 3 0 20 0 0 1 4096 0 0 0 0 #
NMx_Sweep_Generated_Brep_tag-NMx_Brep_Name_tag-NMx_Brep_tag-NamingMatching-attrib $-1 -1 $-1 $47 $30 43 1 29 -1 0 0 12 0 0 0 0 0 0 0 #
coedge $-1 -1 $-1 $68 $68 $79 $80 forward $48 $-1 #
loop $-1 -1 $-1 $81 $50 $19 #
NMx_Matched_Entity-NamingMatching-attrib $-1 -1 $82 $-1 $51 43 1 103 -1 8 0 #
vertex $83 -1 $-1 $51 $84 #
ellipse-curve $-1 -1 $-1 0 0 -175 0 0 -1 -15 -0 -0 1 I I #
vertex $-1 -1 $-1 $53 $85 #
intcurve-curve $-1 -1 $-1 forward { surfintcur full nubs 3 periodic 17 
	0 3 0.1247362916568931779 2 0.2494725833137863558 2 0.3740965828921315461 2 0.498720582470476681 2 
	0.6235988140422803472 2 0.7484770456140839023 2 0.8732443838447276896 2 0.9980117220753714768 2 1.12277906030601704 2 
	1.247546398536662604 2 1.372424630108465937 2 1.49730286168026927 2 1.621926861258614849 2 1.746550860836960428 2 
	1.871287152493853689 2 1.99602344415074695 3 
	-3.123947583634336223 14.67109237564487678 -158.7221314188033716 
	-3.123947583634336223 14.67109237564487678 -159.1379190576597011 
	-3.04058463371510701 14.68960087846736329 -159.5805470456944306 
	-2.703264943027209988 14.75540195800321186 -160.3934074406353716 
	-2.449372130216783461 14.80162020112666177 -160.7637529834501038 
	-1.864562108751856684 14.88659246741693565 -161.3482801484203719 
	-1.494310386680729685 14.93094022108395791 -161.6019473296823321 
	-0.6817432246158727782 14.9900355430979797 -161.9389059388038561 
	-0.2393323023342392164 15.0038424506991781 -162.0221314188033546 
	0.5922845166730003053 14.99408123499193479 -162.0221314188033546 
	1.035088304209192955 14.96981244095021601 -161.9386017650599285 
	1.847868539419890155 14.89134225604320783 -161.6011338268894804 
	2.217968768571318972 14.83807381671757497 -161.3472773913134972 
	2.802040683067457572 14.73893592353015869 -160.7628901392204739 
	3.055600761835037371 14.68649308258191155 -160.3929356626724712 
	3.392645540588581365 14.61231439525383635 -159.5805680059938254 
	3.47605241636566431 14.59167775133066769 -159.138022546238858 
	3.47605241636566431 14.59167775133066769 -158.3062402913678852 
	3.392645540588575148 14.61231439525383813 -157.8636948316129178 
	3.055600761835037371 14.68649308258191155 -157.0513271749342721 
	2.802040683067459792 14.73893592353015869 -156.6813726983862409 
	2.217968768571312754 14.83807381671757497 -156.096985446293246 
	1.847868539419885492 14.89134225604320605 -155.8431290107172345 
	1.035088304209182297 14.96981244095021424 -155.5056610725467294 
	0.5922845166729983069 14.99408123499193479 -155.4221314188033602 
	-0.2393323023342416589 15.00384245069918165 -155.4221314188033602 
	-0.6817432246158611209 14.99003554309798147 -155.5053568988029156 
	-1.494310386680720582 14.93094022108395791 -155.8423155079244111 
	-1.864562108751852687 14.88659246741693565 -156.0959826891863713 
	-2.449372130216781684 14.80162020112666177 -156.6805098541566394 
	-2.703264943027225531 14.75540195800320653 -157.0508553969713716 
	-3.04058463371510479 14.68960087846736329 -157.8637157919122842 
	-3.123947583634336223 14.67109237564487678 -158.3063437799470421 
	-3.123947583634336223 14.67109237564487678 -158.7221314188033716 
	0.001960191644210087202 
	
	cone 0.176052416365664044 337.5620512760838778 -158.7221314188033716 0 1 0 -3.300000000000000266 0 0 1 I I 0 1 3.300000000000000266 forward I I I I 
	cone 0 0 0 0 0 1 -15 0 0 1 I I 0 1 15 forward I I I I 
	nullbs 
	nullbs 
	I I 
	0 
	0 
	0 
	} I I #
intcurve-curve $-1 -1 $-1 forward { surfintcur full nubs 3 open 9 
	1.514766313913922691 3 1.621926861258615293 2 1.746550860836960428 2 1.871287152493853689 2 1.996023444150746728 3 
	2.120759735807639768 2 2.245496027464533029 2 2.370120027042878608 2 2.47728057438757121 3 
	0 -15 -162.0174319432915411 
	-0.3626628362474792477 -15 -161.9980565727682915 
	-0.7386753880409181461 -14.98589505516340736 -161.9152970809794283 
	-1.494310386680729685 -14.93094022108395791 -161.6019473296823321 
	-1.864562108751856684 -14.88659246741693565 -161.3482801484203719 
	-2.449372130216783461 -14.80162020112666177 -160.7637529834501038 
	-2.7032649430272091 -14.75540195800321186 -160.3934074406353716 
	-3.040584633715106566 -14.68960087846736329 -159.5805470456944306 
	-3.123947583634336223 -14.67109237564487678 -159.1379190576597011 
	-3.123947583634336223 -14.67109237564487678 -158.7221314188033716 
	-3.123947583634336223 -14.67109237564487678 -158.3063437799470421 
	-3.04058463371510479 -14.68960087846736329 -157.8637157919122842 
	-2.703264943027225531 -14.75540195800320653 -157.0508553969713716 
	-2.449372130216781684 -14.80162020112666177 -156.6805098541566394 
	-1.864562108751852465 -14.88659246741693565 -156.0959826891863713 
	-1.494310386680708591 -14.93094022108395968 -155.8423155079244111 
	-0.7386753880408944983 -14.98589505516341092 -155.5289657566273434 
	-0.3626628362474731415 -15 -155.4462062648384801 
	0 -15 -155.4268308943152306 
	0.001960191644210618027 
	
	cone 0.176052416365664044 337.5620512760838778 -158.7221314188033716 0 1 0 -3.300000000000000266 0 0 1 I I 0 1 3.300000000000000266 forward I I I I 
	cone 0 0 0 0 0 1 -15 0 0 1 I I 0 1 15 forward I I I I 
	nullbs 
	nullbs 
	I I 
	0 
	0 
	0 
	} I I #
point $-1 -1 $-1 0 -15 -155.4268308943152306 #
point $-1 -1 $-1 0 -15 -162.0174319432915411 #
point $-1 -1 $-1 -2.75 14.74576210305862567 157.0000000000002842 #
coedge $-1 -1 $-1 $79 $79 $68 $80 reversed $81 $-1 #
edge $86 -1 $-1 $87 -3.141592653589793116 $87 3.141592653589793116 $79 $88 forward @7 unknown #
loop $-1 -1 $-1 $-1 $79 $19 #
NMx_Sweep_Generated_Brep_tag-NMx_Brep_Name_tag-NMx_Brep_tag-NamingMatching-attrib $-1 -1 $-1 $70 $51 43 1 29 -1 3 0 4106 0 0 0 0 0 0 0 #
NMx_Matched_Entity-NamingMatching-attrib $-1 -1 $89 $-1 $71 43 1 103 -1 6 1 #
point $-1 -1 $-1 15 1.836970198721029589e-15 -175 #
point $-1 -1 $-1 -3.123947583634333114 14.67109237564487501 -158.7221314188034 #
NMx_Matched_Entity-NamingMatching-attrib $-1 -1 $90 $-1 $80 43 1 111 -1 11 0 #
vertex $91 -1 $-1 $80 $92 #
ellipse-curve $-1 -1 $-1 0 0 175 0 0 1 -15 -0 -0 1 I I #
NMx_Sweep_Generated_Brep_tag-NMx_Brep_Name_tag-NMx_Brep_tag-NamingMatching-attrib $-1 -1 $-1 $83 $71 43 1 29 -1 3 0 4105 0 0 0 0 0 0 0 #
NMx_Matched_Entity-NamingMatching-attrib $-1 -1 $93 $86 $80 43 1 165 -1 11 0 #
NMx_Matched_Entity-NamingMatching-attrib $-1 -1 $94 $-1 $87 43 1 111 -1 9 1 #
point $-1 -1 $-1 15 1.836970198721029589e-15 175 #
NMx_Sweep_Generated_Brep_tag-NMx_Brep_Name_tag-NMx_Brep_tag-NamingMatching-attrib $-1 -1 $-1 $90 $80 43 1 29 -1 3 0 10 0 0 0 0 0 0 0 #
NMx_Matched_Entity-NamingMatching-attrib $-1 -1 $95 $91 $87 43 1 165 -1 9 1 #
NMx_Sweep_Generated_Brep_tag-NMx_Brep_Name_tag-NMx_Brep_tag-NamingMatching-attrib $-1 -1 $-1 $94 $87 43 1 29 -1 3 0 9 0 0 0 0 0 0 0 #
End-of-ACIS-data 